/* XPM */
static char *af2484fe58ee4169dcfd3cea9c93a277VR2DHnX8xR3njNFN[] = {
/* columns rows colors chars-per-pixel */
"64 64 124 2 ",
"   c None",
".  c #010101",
"X  c #090701",
"o  c #090800",
"O  c #0A0A0A",
"+  c #110F09",
"@  c #161201",
"#  c #1A1601",
"$  c #13120E",
"%  c #1E1A09",
"&  c gray7",
"*  c #251D02",
"=  c #281F05",
"-  c #201C10",
";  c #2B2202",
":  c #2D240A",
">  c #322603",
",  c #332B02",
"<  c #3A2C04",
"1  c #30270A",
"2  c #31290B",
"3  c #3E3401",
"4  c #413203",
"5  c #453901",
"6  c #4D3D03",
"7  c #43350B",
"8  c #453A0A",
"9  c #4A3A0C",
"0  c #564504",
"q  c #5C4506",
"w  c #5C4B02",
"e  c #544309",
"r  c #624A06",
"t  c #644E0C",
"y  c #675505",
"u  c #6A5107",
"i  c #6F5C01",
"p  c #67500C",
"a  c #6C5309",
"s  c #6D5C0B",
"d  c #725607",
"f  c #745A06",
"g  c #795C07",
"h  c #766202",
"j  c #7A6402",
"k  c #756311",
"l  c #846D02",
"z  c #846508",
"x  c #886708",
"c  c #8B6A08",
"v  c #8A7201",
"b  c #9A7F01",
"n  c #957208",
"m  c #9D7608",
"M  c #A37C0A",
"N  c #A48602",
"B  c #A68903",
"V  c #AD8C03",
"C  c #A8800A",
"Z  c #B1860A",
"A  c #B58A0A",
"S  c #AF9002",
"D  c #B19202",
"F  c #BB9A02",
"G  c #C4940B",
"H  c #CD9B0B",
"J  c #D19E0C",
"K  c #C6A302",
"L  c #D4AE02",
"P  c #D9A40C",
"I  c #DFA90C",
"U  c #DEB602",
"Y  c #E4AC0C",
"T  c #E7BE01",
"R  c #ECB30D",
"E  c #E6BF0B",
"W  c #F2B70D",
"Q  c #F7BB0D",
"!  c #ECC202",
"~  c #F7C505",
"^  c #F8C504",
"/  c #F7CB03",
"(  c #FBCE01",
")  c #FBCF08",
"_  c #FBD00E",
"`  c #FBD111",
"'  c #FCD41C",
"]  c #E9C829",
"[  c #F9D425",
"{  c #FBD72C",
"}  c #E9CB33",
"|  c #FCD731",
" . c #FCD836",
".. c #FBD939",
"X. c #FCDA41",
"o. c #FCDD4F",
"O. c #F1D553",
"+. c #FADD52",
"@. c #FDDF5C",
"#. c #FDE15E",
"$. c #FCE374",
"%. c #FDE887",
"&. c #FEE98C",
"*. c #FEEFA7",
"=. c #FDECA0",
"-. c #F7ECB6",
";. c #FEF2B8",
":. c #FEF2BB",
">. c #FEF4C3",
",. c #FDF3C4",
"<. c #FEF6D0",
"1. c #FFFAE3",
"2. c #FFFAE4",
"3. c #FEFAE7",
"4. c #FFFBE9",
"5. c #FEFBEE",
"6. c #FFFCEE",
"7. c #FFFCEF",
"8. c #FFFCF1",
"9. c #FFFCF2",
"0. c #FFFDF4",
"q. c #FFFEFB",
"w. c #FFFFFE",
"e. c white",
/* pixels */
"                                                                                                                                ",
"                                                                                                                                ",
"                                                                                                                                ",
"                                                                                                                                ",
"                                                                                                                                ",
"                                                                                                                                ",
"                                                              . .                                                               ",
"                                                              . .                                                               ",
"                                                          O % V V O O                                                           ",
"                                                          . @ ~ ~ . .                                                           ",
"                                                          . @ ~ ~ . .                                                           ",
"                                                          . @ ~ ~ . .                                                           ",
"                                                          . @ ~ ~ . .                                                           ",
"                                                          . @ ~ ~ . .                                                           ",
"                                                          . @ ~ ~ . .                                                           ",
"                                                          . @ ~ ~ . .                                                           ",
"                                                      O e j l ~ ~ g g 7 O                                                       ",
"                                                    O . i ( ( ~ ^ Q Q 0 .                                                       ",
"                                                    O . i ( ( ~ ^ Q Q e .                                                       ",
"                                                    O . i ( ( ~ ^ Q Q e .                                                       ",
"                                                    O . i ( ( ~ ^ Q Q e .                                                       ",
"                                                    O . i ( ( ~ ^ Q Q e .                                                       ",
"                                                    2 , v ( ( ~ ^ Q Q g > 2                                                     ",
"                                                . . l ( ( ( ( ~ ^ Q Q Q Q d . O                                                 ",
"                                                . . l ( ( ( ( ~ ^ Q Q Q Q d . .                                                 ",
"        . . . . . . . . . . . . . . . . . . . . . . l ( ( ( ( ~ ^ Q Q Q Q d . . . . . . . . . . . . . . . . . . . . . .         ",
"        . . . . # ; ; ; ; ; ; ; ; ; ; ; ; ; ; ; ; ; b ( ( ( ( ~ ^ Q Q Q Q x ; ; ; ; ; ; ; ; ; ; ; ; ; ; ; ; ; @ . . . .         ",
"            . . v T T T T T T T T T T T T T T T T T ~ ( ( ( ( ~ ^ Q Q Q Q R Y Y Y Y Y Y Y Y Y Y Y Y Y Y Y Y Y f . .             ",
"            O . l K L ( _ |  . . . . . . . . . . . . . .' ( ( ~ ^ Q Q Q Q Q Q Q Q Q Q Q Q Q Q Q Q Q Q Q Q H G a . O             ",
"                + o 5 ( | 3.0.0.0.0.0.0.0.0.0.0.0.0.0.0.%.( ( ~ ^ Q Q Q Q Q Q Q Q Q Q Q Q Q Q Q Q Q Q Q R < X $                 ",
"                O . 3 ( | 8.w.w.w.w.w.w.w.w.w.w.w.w.w.w.&.( ( ~ ^ Q Q Q Q Q Q Q Q Q Q Q Q Q Q Q Q Q Q Q R > . O                 ",
"                      . , ! ( { ..,.w.*.( ( ( ( ( ( ( ( ( ( ( ~ ^ Q Q Q Q Q Q Q Q Q Q Q Q Q Q Q Q Q I = .                       ",
"                      . , U ! ] } -.5.=._ _ _ _ ( ( ( ( ( ( ( ~ ^ Q Q Q Q Q Q Q Q Q Q Q Q Q Q Q W Y J = O                       ",
"                          . . . . S ( @.w.w.w.w.' ( ( ( ( ( ( ~ ^ Q Q Q Q Q Q Q Q Q Q Q Q Q Q Q Z . .                           ",
"                          . . . . B ! O.6.6.8.8.{ ` ) ( ( ( ( ~ ^ Q Q Q Q Q Q Q Q Q Q Q R Y Y Y C . .                           ",
"                                  2 ; k | ..+.+.>.<.@.( ( ( ( ~ ^ Q Q Q Q Q Q Q Q Q Q Q r ; ; ; 1                               ",
"                                  O . 0 T E [ [ 4.w.$.( ( ( ( ~ ^ Q Q Q Q Q Q Q Q Q Y I 4 . . . O                               ",
"                                        * w / ( 3.w.$.( ( ( ( ~ ^ Q Q Q Q Q Q Q Q Y 6 *                                         ",
"                                        . 3 / ( 1.w.$.( ( ( ( ~ ^ Q Q Q Q Q Q Q Q I > .                                         ",
"                                        . 3 / ( 1.w.$.( ( ( ( ~ ^ Q Q Q Q Q Q Q Q I > .                                         ",
"                                        . 3 / ( 1.w.$.( ( ( ( ~ ^ Q Q Q Q Q Q Q Q I > .                                         ",
"                                  O . 0 L U ( ( 1.w.$.( ( ( ( ~ ^ Q Q Q Q Q Q Q Q W P J 7 . &                                   ",
"                                  O . 0 ( ( ( ( 1.w.$.( ( ( ( ~ ^ Q Q Q Q Q Q Q Q Q Q Q 4 . O                                   ",
"                                  O . 0 ( ( ( ( 1.w.$.( ( ( ( ~ ^ Q Q Q Q Q Q Q Q Q Q Q 4 . O                                   ",
"                                  O . 0 ( ( ( ( 1.w.$.( ( ( ( ~ ~ Q Q Q Q Q Q Q Q Q Q Q 4 . O                                   ",
"                                  O . 0 ( { :.:.o.X.' ( B 5 5 5 5 4 4 A Q Q Q Q Q Q Q Q 4 . O                                   ",
"                                  O . 0 ( X.q.w.' ( ( ( v . . . . . . m Q Q Q Q Q Q Q Q 4 . O                                   ",
"                                O f v D ( X.q.w.' ( V i 0             e a A Q Q Q Q Q Q M x p O                                 ",
"                              . . S ( ( ( X.q.w.' ( f . .             . . z Q Q Q Q Q Q Q Q n . O                               ",
"                              . . S ( ( ( ' #.#.s w 8                     9 q g Q Q Q Q Q Q n . O                               ",
"                              . . S ( ( ( ( ( ( # .                       O . ; W W Q Q Q Q n . O                               ",
"                              . . S ( ( ( U v v % .                         . : z c I Q Q Q n . O                               ",
"                              . . S ( ( ( F . .                                 . @ G Q Q Q n . O                               ",
"                          & O h l j h h h y $ O                                 O - u f f f f f t O O                           ",
"                          . . K ( 6 . . . .                                         . . . . e Y M . .                           ",
"                          . . l N 8 O O O O                                         O O O O 9 n u . .                           ",
"                          . . . .                                                             . . . .                           ",
"                          . . . .                                                             . . . .                           ",
"                                                                                                                                ",
"                                                                                                                                ",
"                                                                                                                                ",
"                                                                                                                                ",
"                                                                                                                                ",
"                                                                                                                                "
};
