/* XPM */
static char *b20db91ffe2940e6d5475a39722b231fp254vnjOvvdmq2x8[] = {
/* columns rows colors chars-per-pixel */
"64 64 148 2 ",
"   c #010205",
".  c #010306",
"X  c #020306",
"o  c #010406",
"O  c #010305",
"+  c #010204",
"@  c #010203",
"#  c #010407",
"$  c #020407",
"%  c #020408",
"&  c #020508",
"*  c #020509",
"=  c #020507",
"-  c #020406",
";  c #02060A",
":  c #02050A",
">  c #03060B",
",  c #03080D",
"<  c #03070D",
"1  c #03070C",
"2  c #02060B",
"3  c #03060C",
"4  c #020305",
"5  c #030509",
"6  c #04090F",
"7  c #03070B",
"8  c #03080E",
"9  c #04080E",
"0  c #020307",
"q  c #010202",
"w  c #03060A",
"e  c #020609",
"r  c #040A11",
"t  c #091119",
"y  c #050A11",
"u  c #040910",
"i  c #04080F",
"p  c #010304",
"a  c #000101",
"s  c #010103",
"d  c #010102",
"f  c #040911",
"g  c #050B14",
"h  c #050B13",
"j  c #050C14",
"k  c #050A12",
"l  c #03050B",
"z  c #040B11",
"x  c #040B13",
"c  c #050B15",
"v  c #050C15",
"b  c #060C16",
"n  c #060D17",
"m  c #060D16",
"M  c #060D18",
"N  c #040A13",
"B  c #010104",
"V  c #03050A",
"C  c #050D16",
"Z  c #060F1A",
"A  c #070F1B",
"S  c #070E19",
"D  c #030910",
"F  c #03090F",
"G  c #07131D",
"H  c #060F19",
"J  c #060E19",
"K  c #060E18",
"L  c #060E1A",
"P  c #070F1C",
"I  c #07101D",
"U  c #040A10",
"Y  c #040A12",
"T  c #03080F",
"R  c #070F18",
"E  c #060F1B",
"W  c #07101B",
"Q  c #07101C",
"!  c #000001",
"~  c #050D17",
"^  c #060C15",
"/  c #050C16",
"(  c black",
")  c #070E1A",
"_  c #070F1A",
"`  c #03070E",
"'  c #08111E",
"]  c #0B151F",
"[  c #07111E",
"{  c #07111D",
"}  c #030609",
"|  c #0B1420",
" . c #16242D",
".. c #08111D",
"X. c #08111F",
"o. c #101718",
"O. c #090D0F",
"+. c #071220",
"@. c #081221",
"#. c #081220",
"$. c #090F11",
"%. c #04080B",
"&. c #07121F",
"*. c #081322",
"=. c #091322",
"-. c #070F19",
";. c #091423",
":. c #02060C",
">. c #010101",
",. c #02070B",
"<. c #08121F",
"1. c #050A13",
"2. c #091324",
"3. c #0E1A27",
"4. c #02070C",
"5. c #04080D",
"6. c #050B12",
"7. c #050911",
"8. c #010408",
"9. c #050910",
"0. c #070E13",
"q. c #040B12",
"w. c #060C17",
"e. c #050C17",
"r. c #0B1520",
"t. c #050D18",
"y. c #070E18",
"u. c #050A0F",
"i. c #010307",
"p. c #030810",
"a. c #04090E",
"s. c #040810",
"d. c #000102",
"f. c #04070E",
"g. c #040B14",
"h. c #0B131A",
"j. c #070D13",
"k. c #050A10",
"l. c #04070D",
"z. c #060B14",
"x. c #070E17",
"c. c #09111B",
"v. c #121E26",
"b. c #080F18",
"n. c #020304",
"m. c #000103",
"M. c #080D12",
"N. c #182325",
/* pixels */
"  . X o O + @ + O . o . # . . . $ % & * & & = O - - - $ $ % & * * & * & ; : & ; > , < 1 > < < 2 3 * & * & ; * * $ - . O O 4 X $ ",
"+ O 4 X O @ @ @ + + . # # $ o . # & * 5 & $ O O - - = & $ & : ; ; * * : 1 > > < 6 , < 7 < 8 9 , < * & * * : : & . . O O O   X 0 ",
"q + +   + + @ @ @ + O . O . $ $ # & * w * $ X X X - & e e 7 1 > 2 w 1 < 1 , < r t y 6 u i 8 6 9 1 w % & * * $ . O X p + +   X   ",
"a q @ + + + s s d + O O O . $ % - & * * * $ - $ 0 - & * > 1 , 9 < 1 1 8 9 i f g g g h j f u k i 9 * % & & $ O O     + + +       ",
"a s @ @ + + s s d s p O . o % * * * & * * * % $ % % * l > 1 , z u i u r x x c v b n m M v N 6 u u > : & $   @ + + @ + + +       ",
"a d B @ + + @ @ @ @ + O - $ % * V 1 > > > : % $ % % V > 1 , 6 z r x C v v v m m n Z A Z S h u r i 1 ; & X @ s @ + + + + + +     ",
"a d s @ + + +   4 O   O - % * % > 8 < 1 > : & % $ V w 7 < 8 D F x v M G H J J K J L P I K v U Y u 1 2 & X + + @ + + s @ + + + O ",
"a d s @ +   + O O X O O $ * ; * 7 < 8 8 1 * * % * w 1 < T u r g c M J H R A E W M Q I E L g u k 6 , 2 * X + + + + + @ @ @ @ + p ",
"! d s + + + + O . o o # % * > V w < 8 < 1 ; * & * 2 < T r h Y x n K E K K E E ~ K A Z J ^ 6 i u T < 2 & O +   + O + +   4 O   + ",
"! d s +   + O O . o # % * w > w w < 8 , 1 w : * : : 1 D Y N c v n P A A n K m / b n m h h r 9 u < 1 * # X X +   .   O $ $ X 4 X ",
"( d @ + +   O O O o o % ; w 1 < 1 8 8 < < w ; * > 1 1 i y g / n n ) E J M M m K _ n n v v u i 9 < > * % $ o . o o . # & # o . X ",
"( ( a s +   X - # $ $ % * > 1 7 3 ` 1 1 > : & e w 1 , u r h v J M Z Q ' ] n J [ { H L M g k u 6 1 3 : & $ $ & $ # . % $ $ # o O ",
"( ( ! a d + 4 - # % & * } > < 1 < < 1 1 3 ; * > < 8 1 u Y h C / n J Q |  .C ..X.I [ Q J / k u T 1 1 ; : * o.O.% % # $ % $ $ # O ",
"( ( ( ! a d +   $ $ % : w > w > 7 1 3 < 3 * % } , u 8 f x c M n M L E E W v Q +.@.#.{ E n g U 8 1 > w ; V $.%.% % % $ - . # . + ",
"( ( ( ( ( a s   4 X $ & * V w w > < 1 < 1 ; * w 6 u u f N v n K _ J J L v M [ &.*.=.#._ M g r T < 1 > : : : * % % % $ o o # . + ",
"( ( ( ( ( ! d B + X $ $ $ & * & > 1 1 > > > > > , 8 i Y N v M K L J -.J Y ~ ' ' ;.*.[ A ) / x r T 8 T 3 > w % * & % 0 . o o X + ",
"( ( ( ( ( a a d @ O $ & * * * & ; :.> 1 3 > > > 1 , 8 u Y x v / n Z J L h n Z #.*.*.[ I ) M c N u T 8 < > 2 ; : * * # . . . X + ",
"( ( ( ( a a >.d d + o $ $ & * * & 2 3 1 3 ,.; * : ; i r Y g v / n J A n c M I #.*.*.<.@.[ Z n g Y D T 8 < > ; > ; * & o . X . p ",
"( ( ( ( ! a d d d + O . & : ; : ; > > > 2 ; > 2 2 > , r r 1.v v h v / M n S A { 2.=.' X.3.A b N g u u u T < ; : ; * % . . $ o O ",
"! a a a a d d d d + + O o ; % ; ; 2 4.; > ; 2 1 < 8 8 6 u r v n g 1.m v b n K Q X.<.Q X.I _ v C v f u i i < w : ; ; * % $ & o . ",
"( a d d d s q q @ s @ + . & * > 1 > > w w : > 2 5.i 6 f Y T r h 6.k J _ A J K A ' { Q E J J g v C g Y 7.y T 8 3 ; * ; & % & 8.o ",
"( a d q @ @ d @ @ + + # % * * > 1 2 w 5 * : 2 1 8 f f f 9.0.9 r k k n _ L I _ M S Z L M n v g ~ M / j b x f u 8 > ; > > } ; # X ",
"a a d s @ + + + + O $ % : * & 7 < 1 * $ $ * 2 8 T Y u T 9 1 ; < 8 k / n n / J n J n v g q.g m w.J C v n v Y u 8 1 5.< < , ; ; = ",
"d >.d s @ O O . - # & * ; > > 3 , 1 * $ $ & ; , T f i 1 8 ; * > y g Y N f g b K P J / r r v v v e.g g j j h Y u 9 u u F < 1 4.* ",
"d >.>.d @ O . # * ; * : 1 1 > 7 < 1 & $ X * * 2 , < 8 i 9 > 1 > Y h r N g J J J Q r.g h h h k g b M t.r f r f f y x Y u F 8 < 1 ",
"s s @ @ + + . # $ * ; : > 1 w w < ; $ $ X $ * > < 9 9 i ` 1 < 1 6 k f f g / b J y.n h 1.h k v g j v j Y 7.k g N g x f f u f 8 < ",
"s s + O O O O . $ & * ; ; * % } 1 ; $ 0 O % % * > 8 i 8 8 , i u 8 u 1 6 h v g m v N Y N Y y Y u g g g g j v g g 1.Y Y k 1.u ` 1 ",
"@ + O 4 o & & & & * * : * & $ * 2 : % X - $ $ & w ; > u.1 7 9 1 i 9 9 9 f g c g h f F h b j h x g g g v v j g h h x g g Y k T 1 ",
"@ + + O - * V * % % & $ & $ . & * * * # # % * ; V & % ; ; w 1 2 1 1 ; 5.8 u g v / v h 1.g m g g w.v g n t.n / g h Y x h 1.k f 6 ",
"s @ @ O $ & % & % - 4     + O . $ * * % * : ; ; * $ X i.& & * : : * > 9 8 i f j K m v j g ^ g g n n / J _ t./ g k r f Y f f f D ",
"a d +   X $ $ $ $ X 4 + @ @ + X 0 $ $ # * * * & $ # O . # - % : ; w > < 1 6 6.v v ^ n v r f r x c v g n J C b N f i 9 p.r D F 8 ",
"a ! d + X $ $ o O + 4 + q q + 4 X . $ O . $ % & # O p O . - $ e e * : : w < Y g C g g / k r h 1.r h y r g h h u r u 8 6 f 6 < 1 ",
"a a d + O . O O   + @ q d d s + + O   p O $ & & & O +   # # - & e * * * > 1 u Y v h Y r r r u 8 u g g r h k x 8 , 6 < 6 f D < > ",
"d @ @ + 4 O O O O + + q d d + p + p @ @ p o - X X O @ + O . $ % * ; : ; > 1 < 6 u u r 7.i 6 6 r h h x Y h g g r a.1 1 9 u u < : ",
"s + + + O O + O O p @ d a d @ @ @ + + + O X X X X + @ + @ o % % % * ; > w w ; < 8 T u r u 8 r h M / v / v / c g r u 8 1 s.9 1 ; ",
"@ + p O . . O . + O + s d d @ @ + X X O O X X O   @ @ + @ O # * * * * ; 2 w w 1 > , u Y Y r r N v ~ ~ / / / / / h Y u 6 u u 9 1 ",
"d @ + O o O . O O O + + @ + O p O O X O O . O O   + + 4 + O O & V 5 & } : ; * w > 1 8 u r f Y h / / ~ C / g g v g h / k Y r 6 9 ",
"d d d +   O O O O O $ O O O o O O p + p p O . . O +   X   + + . 5 * & & 5 V * 3 > ; 1 < i f u f h / / v v v j n n n / g g 1.r i ",
"d.! a @ @ + 4 - $ i.. . . i.o O O @ d @ + X $ - + +   4 p O + + X % % % & * * ; > 1 < 8 9 u 1 6 k v / c g g n n n K ~ v h 1.h f ",
"d.a a s +   O . O O O # . . O + @ s q d O X O   + +   $ - + @ + O # * * % * * * w , 6 u i 6 6 9 h v g v / C v / ~ ~ ~ v Y r u i ",
"( ( a @ + O + O + + O X X 4 + @ @ s @ @ +   + @ d @   O X + @ + O % w w * % $ $ * 1 8 8 8 f r u u h v n m n j v v / v h r Y u 8 ",
"( ! >.d + + + O + + O O + + + + @ d d d s d d d d.q s s + @ + p o % % * 5 & $ o % * 1 f.T u r 6 8 T r x g h Y h g.v h k u u u ` ",
"( ( ! d d @ + O +   O . + O O + s d a d d.( ( ( ( ! d d a d.>.@ O 0 0 - $ . O O & * ; 1 9 u u 9 , < 1 u u i r r h g h.j.u 6 < w ",
"( ( ( a d d @ + + + p p O O + + @ >.a >.( ( ( ( ( ( ( ( ( ! ! d.@ + + O p + + O $ % % * 1 i u u 8 > 1 8 9 8 6 f N k k.k.8 < 7 > ",
"( ( a a a a s @ + + @ @ @ + @ @ q a ! ( ( ( ( ( ( ( ( ( ( ( ( ! ! d.a ! ! a s + 4 4 4 $ 5 l.i T 8 , 1 < 8 u r Y g r f l.w 1 1 > ",
"( ( ! a d.>.d s @ + s @ + s d d ! ( ( ( ( ( ( ( ! ( ( ( ( ( ( ( ( ( ( ( ( ! >.s s +   X & > < < T i T 9 u f h h h Y Y 9 ; 1 > > ",
"! ( ( ! a a d @ s s s s @ s d a ( ( ( ( ( ( ( ( ( ( ( ( ( ( ( ! ( ( ( ( ( ( ! a d @ @ O # * 1 9 < < s.u 9 u r c j g Y r 1 > 7 1 ",
"( ( ( ( ( ( ! @ + s d @ @ d d ! ( ( ( ( ! ( ( ( ( ( ( ( ( ( ( ( ( ( ( ( ( ( ( ( d s @ + o * > 3 1 3 < 9 1 < u h z.h h u 9 ; 3 1 ",
"( ( ( ( ( ( ! d @ s s + @ d a ( ( ( ( ( ( ( ( ( ( ( ( ( ( ( ( ( ( ( ( ! ( ( ( ( >.@   O $ * w 7 3 9 1 1 < 8 u h h N r u i 1 1 8 ",
"( ( ( ( ( ( ! q q @ + + @ d ( ( ( ( ( ( ( ( ( ( ( ( ( ( ( ( ( ( ( ( ( ( ( ( ( ( a @ O X % : > 1 i r < > 9 u f Y r f f i 9 l.9 8 ",
"( ( ( ( ( ( a @ + @ +   @ d ( ( ( ( ( ( ( ( ( ( ( ( ( ( ! ( ( ( ( ( ( ( ( ( ( ( a @ 4 = * : 7 1 u Y 6 < 9 f u F 1.u u u u r r f ",
"( ( ( ( ( ( d + + @ + p + d ! ( ( ( ( ( ( ( ( ( ( ( ( ( ( ( ! ( ( ! ( ( ( ( ( ( ( d O # % & 7 1 r g r 9 , 6 f r u y u Y r Y Y Y ",
"( ( ( ( ( d + O O @ +   @ >.( ( ( ( ( ( ( ( ( ( ( ( ( ( ( ( ( ( ( ( ( ( ( ( ( ( ( d + . o & 1 8 r c j f 6 6 u Y u 6 r r Y x x x ",
"( ( ( ( a @ O O + + + @ @ d.( ( ! ( ! ( ( ( ( ( ( ( ( ( ( ( ( ( ( ( ( ( ( ( ( ( ! d + o % ; 1 s.Y x.c.v 6 9 i f Y r Y r Y Y x x ",
"( ( ( ( @ + + + + @ + @ @ d.>.d ! ( ! ( ( ( ( ( ( ( ( ( ( ( ( ( a q d ( ( a a a a @ + . * 2 1 u g g y.v Y k 6 8 u f r f f Y x g.",
"( ( ( a d q @ +   @ @ @ @ @ @ d a ( ( ( ( ( ( ( a a d a ! a a >.q + @ d >.>.>.a s + + . & 2 8 u g / v.b.h r i 1 < u f u u f Y N ",
"( ( ( d.d.d +     + @ @ p + + @ d a a a ( ( ! d @ @ + d a d s s + + + @ s d s s     O $ * 2 , r g v b g h h u 8 1 1 9 u k.9.i 6 ",
"( ( d.d.d @ p     + @ p p + p @ q d s d >.d @ + p O + s >.@ s + 4 X     n.@ + + O . - % w 2 8 r h v C g k Y f 8 i < , u u 9 8 u ",
"( a d.d.@ @ + p p @ @ @ + + @ @ @ @ @ @ +   X $ o # O + @ s + 4 X X . X X p   X 4 o $ % * ; < f x h h g g h k 6 9 < i y 6 i 8 ` ",
"! a a a @ @ @ + + @ @ @ @ s q @ @ @ + + X $ & % % * & $ + + 4 0 $ 0 - X o o - 0 X $ $ * * : 1 u 6.r Y h g c Y 6 8 < u k u i 9 i ",
"( ( ! d.d @ @ @ @ @ + @ q q @ s @ @   - % * * * * 2 2 * $ % X $ $ X . $ o . & % # . # & % & w 9 y u u r x N r u 9 1 u f u i i T ",
"( ( ! ! m.@ @ @ @ + + @ d @ q @ + O 4 $ * w : * * 7 > ; & # & $ $ # $ # $ $ * & & $ # # . $ & > < < i u u u 7.9 1 1 i f f ` 5.T ",
"( ! ( ! d.d.s q @ @ + + @ @ q @ @ O X & ; ; * * w : w > * * % & $ % * $ o $ * * * % $ i.# * ; > ; ; < u.a.T i 8 < 1 9 u 6 9 i 6 ",
"( ( ( a d.d d @ @ s + @ q @ + @ + X & & ; V * e 5.< ; : w ; & & & % % $ . $ * 2 * V : * * 1 1 7 , 1 1 M.N.5.8 1 1 < 1 , < 8 T p."
};
