/* XPM */
static char *_e8d91c0e25e4fc2fefd9fa9aadb0d1eDfC8icTa33QHhgnm[] = {
/* columns rows colors chars-per-pixel */
"64 64 176 2 ",
"   c None",
".  c #218E45",
"X  c #269046",
"o  c #2B9346",
"O  c #329647",
"+  c #369947",
"@  c #3B9B47",
"#  c #359748",
"$  c #379948",
"%  c #3D9C48",
"&  c #3F9D58",
"*  c #429E49",
"=  c #489F4A",
"-  c #45A148",
";  c #4BA349",
":  c #52A64A",
">  c #58A74B",
",  c #54A949",
"<  c #5CAD4A",
"1  c #49A356",
"2  c #62AE4C",
"3  c #69AF4D",
"4  c #64B14B",
"5  c #6BB24D",
"6  c #73B54E",
"7  c #79B74F",
"8  c #77B84E",
"9  c #7CBA4F",
"0  c #65B254",
"q  c #6AB455",
"w  c #66B25F",
"e  c #6CB55C",
"r  c #71B651",
"t  c #7CB750",
"y  c #77B954",
"u  c #7CB951",
"i  c #71B75E",
"p  c #76B95C",
"a  c #78B958",
"s  c #60AE6A",
"d  c #6FB760",
"f  c #69B36D",
"g  c #70B760",
"h  c #74B965",
"j  c #7EBD64",
"k  c #77BB69",
"l  c #7ABC6C",
"z  c #7FBF71",
"x  c #82BC4F",
"c  c #84BC50",
"v  c #8ABF51",
"b  c #84BE59",
"n  c #83BF61",
"m  c #8CC051",
"M  c #8BC15C",
"N  c #93C352",
"B  c #9BC653",
"V  c #9EC853",
"C  c #9CC758",
"Z  c #A6CB54",
"A  c #A8CC56",
"S  c #A5CB5A",
"D  c #AACD5A",
"F  c #89C267",
"G  c #8BC36C",
"H  c #94C564",
"J  c #9FC962",
"K  c #94C66B",
"L  c #98C868",
"P  c #82C174",
"I  c #8BC474",
"U  c #86C379",
"Y  c #8FC67F",
"T  c #93C773",
"R  c #9CCB75",
"E  c #94C879",
"W  c #A3CB62",
"Q  c #AECF61",
"!  c #A4CC6B",
"~  c #A9CF6A",
"^  c #AED069",
"/  c #B0D065",
"(  c #B2D26A",
")  c #A5CE76",
"_  c #ACD073",
"`  c #AED27C",
"'  c #B4D372",
"]  c #B9D677",
"[  c #B5D57D",
"{  c #BBD77B",
"}  c #BDD87E",
"|  c #8DC681",
" . c #92C885",
".. c #9BCB83",
"X. c #96CA8B",
"o. c #9ACC8E",
"O. c #9CCE92",
"+. c #A1CF8B",
"@. c #A4D08E",
"#. c #A8D18A",
"$. c #B0D380",
"%. c #BED982",
"&. c #A1D096",
"*. c #A9D394",
"=. c #A5D29B",
"-. c #AAD49E",
";. c #B1D592",
":. c #B6D892",
">. c #B5D899",
",. c #BBDB9D",
"<. c #ABD5A1",
"1. c #B4D9A6",
"2. c #BFDDA4",
"3. c #B5DAAC",
"4. c #BEDEAC",
"5. c #BCDDB4",
"6. c #C0DA85",
"7. c #C3DC8B",
"8. c #C6DE90",
"9. c #C5DE92",
"0. c #C8DE94",
"q. c #C6DF9A",
"w. c #CBE09A",
"e. c #CDE29E",
"r. c #C5DFA1",
"t. c #C0DFB9",
"y. c #C7E0A0",
"u. c #CCE2A2",
"i. c #CDE3AF",
"p. c #CCE2AA",
"a. c #D2E5A7",
"s. c #D2E5A9",
"d. c #D2E5AA",
"f. c #CFE5B7",
"g. c #C1E0BB",
"h. c #C5E2BE",
"j. c #C5E2BD",
"k. c #D8E8B3",
"l. c #D9E8B4",
"z. c #D4E7BB",
"x. c #DCEBBB",
"c. c #DBEBBD",
"v. c #DDEBBC",
"b. c #DBEBBD",
"n. c #C6E3C0",
"m. c #C9E4C4",
"M. c #D6E9C3",
"N. c #DCECC4",
"B. c #D0E7CA",
"V. c #D1E8CC",
"C. c #DAEBCB",
"Z. c #D6EBD1",
"A. c #DBEDD7",
"S. c #DFEFD8",
"D. c #E2EECB",
"F. c #E3EFCC",
"G. c #E6F0CE",
"H. c #E0EFDD",
"J. c #EBF3D7",
"K. c #E3F0DD",
"L. c #E6F2DF",
"P. c #E2F1DC",
"I. c #ECF4DB",
"U. c #EEF5DE",
"Y. c #E6F3E6",
"T. c #E8F4E6",
"R. c #EBF5E3",
"E. c #EBF5EB",
"W. c #F0F6E2",
"Q. c #F3F8E7",
"!. c #F1F7E8",
"~. c #F5FAED",
"^. c #F6FBF5",
"/. c #F5FAF4",
"(. c #FAFCF5",
"). c #FBFDFA",
/* pixels */
"                                                                                                                                ",
"                                                                                                                                ",
"                                                                                                                                ",
"                                                                                                                                ",
"                                                          A Z Z Z Z A                                                           ",
"                                          Z Z   Z Z Z Z 8.k.Q Z Z Z x.G.Z Z Z                                                   ",
"                                        Z A A Z V 9 u 9 u Z Z ( l.A ( 7.Z Z Z                                                   ",
"                                    Z Z D N.R 6 < 2 g.4.r 5 9 W u.I.A Z Z A A Z                                                 ",
"                                  Z Z Z ` o.0 < 6 ` c.{ V v 2 5 [ P.A Z A v.k.Z D /.o.< <                                       ",
"                                Z Z Z ! 1.2 < 5 N N D.4.q 5 < < g e 5 6 N 2.d.Z A d.p.6 4 4 m ' Z                               ",
"                            Z S w.:.6 0 5.e < 4 5 < ..a v m m 5 < < < < < < 8 N Z Z B Z N 4 I R.%.Z                             ",
"                          Z V L T.| < e 0 < < < 2 9 B V v m Z N v 9 4 =.U < < < 5 5 < 6 N Z A 7.7.Z                             ",
"                        Z V N B e < < t.5.0 < < < 6 x x 9 9 c 6 N B N i.j.< < < < l o.0 4 N Z Z Z Z ] 8.                        ",
"                        Z T i 4 < < < e O.q < > : m Z Z Z Z m * O O t v v < < < < e t.e < 4 m Z Z Q Q.J.Z                       ",
"                      Z c 4 < < < 4 4 < < < < @ 2 Z Z Z Z Z Z B c > o ; N N 6 ; > < < < 0 j.h 5 N A p.N.Z                       ",
"                    Z B 5 N 6 x N B 6 < < < 4 v B 6 ; N Z B : ; ; N c m Z Z B * O O % , < l k < 2 c 9 6 B Z                     ",
"                  Z c q c Z Z B x 4 < < < 6 m 6 = X . ; 6 # . . . o + < 2 V Z B 6 . . o , 2 0 < < 4 5 4 B Z                     ",
"                  5 -.L.Z _ c 6 < < < 2 m Z c . . . X : 2 3 < % . . . . . O 3 u Z 6 X o 0 B.T.h < < < < c Z Z                   ",
"                  N b.e.y.R.h < 6 5 5 m Z 3 @ . . * > Z Z Z Z N c c c c : O . X = 6 5 O 1 E.m.z X.< < < 2 ;.(                   ",
"                B Z Z B z E.E N Z V Z Z 6 . . 3 c Z Z Z B Z Z Z Z Z Z Z Z v O % + . 2 c % s k P Z.< < < < P @.B                 ",
"              Z Z Z Z 9 4 *.i.Z B 6 B N * = 6 B Z V v > * B Z Z Z Z B B Z : 3 o ; O @ N 6 X ; d l < < 2  .q <                   ",
"              Z Z 4 H ' N Z A c = @ < o + N 2 X ; ; X @ 2 6 , ; m B % X 2 o . O < , X # v + o > < < < P ).O.<                   ",
"            / %.v < V.0.Z N 2 X . . X 7 ; : . . . . . X X X = c Z c > ; % % . O < < - . ; $ % < < < < k E. .<                   ",
"            7.~.c < p.Q x < O . . + v ; . . . . . . . . . > Z V V Z B m u 2 . . - < ; . o $ : < < < < < e < =.                  ",
"            A { c < V Z 5 > X . o 6 c . . . X X . . . . . = ; @ ; c Z Z Z Z - . . ; - + . o $ < < < < < < < T F.                ",
"            Z m Z 6 B 5 < - . . 2 c o . . * , : X O - - % . . . . o : B Z Z m % . o X - . * $ % < < < < < < < C Z               ",
"            Z 9 Z 6 N < < > ; O 9 @ . . - < < - - > * X X . . = : . . : B Z Z > . > % - . X 7 @ < < < < < < < 6 Z Z             ",
"            B 4 Z B 6 < < < O ; B o . % < : - > ; o . . 5 2 c B v 3 . . 5 Z Z < . ; 5 - . . 6 * < , < < < < < < 6 Z             ",
"          Z N 9 Z Z 5 < < ; . : B o . * > X X O # : # 6 Z Z 7 ; . 5 . . . B Z 7 X * 5 ; o . * : , + > < < < < < 2 N             ",
"          Z x m Z N < < ; X . 2 9 X % < ; . . ; c Z Z Z Z Z 3 2 @ . . . . 3 Z Z 2 . O , + . . * < * ; < < < U e < c             ",
"          Z 6 2 m N < < $ . . 5 = X > ; O . o N Z Z Z Z Z m : B Z * . . . O Z Z c X . , , * X . o ; % < < < 3.j.< v Z           ",
"          Z 6 < 4 N < < O . . X . , < , X . = Z Z Z B m Z 6 . : Z Z 2 . # 6 Z c O + . , + - X X X : $ < < < &.l < x Z           ",
"          Z 6 e B N < > . . . . . : % < % . * B Z Z ; X c Z : % 6 v X . @ Z Z B ; . X , O - o * * @ X : < < < < < 5 Z           ",
"          N 4 5.7.6 < - . . + . . o o < % . . , 9 Z # o N Z # . . . . . . Z Z Z > . , ; . - * * 6 X X : < < < < < c Z           ",
"          m < #.d.< < + . + @ . . . , , . . . X : N N # v Z v c 2 B > # v Z Z c . O > ; . - X O 6 . . : < < < < 4 N Z           ",
"          m < m v < < , . : X . . * < , . . . . X - ; % # Z Z Z Z Z B # u Z V ; . ; < < % . . . 2 . . : < < < 6 Z Z             ",
"          Z 5 m x < < < % , X . . , < , . . . o $ . o O . 6 Z Z Z c % X v N * . o : - < ; . . . 6 : X , < < < 6 Z Z             ",
"          Z c 6 x < < < < < X . . * < > # . . o , + O > O ; 6 B 5 . * u B @ . o ; X + < O . . . t 3 % < < < < 6 Z Z             ",
"          Z V r Z 2 < < < < o . . . , < < + . . * ; . $ ; . . . . o 2 : . . X $ . . - % . X ; . t 5 , < < 6 9 v Z               ",
"          Z } 3.u N c < < < ; . . . : + < < ; X X > O . . . . . . . . . . X O - + ; , X . 2 * 6 c % < < 2 v 4 ! Z               ",
"            D d.S.{ ! 4 < < > $ . . X X < < < O . $ , : ; X . . . . O O % + X o - : o . . o 2 v $ , < 0 M Z F P.{               ",
"            Z Z z ..v.9 < < < < + . . . - < < ; . . o : < , X X X ; ; o . . ; ; o X . . . 2 B = - < 0 m.N.D p.).}               ",
"              Z 6 Y ~.[ < < < < % . . . o , < < % . . . - > > < < ; . . X : 5 O . . . X > v ; o , < y u.e.A Z ' Z               ",
"              Z Z 6.~.{ m 2 < < > X . . o % < < > o . . . . . X o . . X v 5 X . . . : B m < 5 m e +.S Z N B Z Z Z               ",
"              Z A 7.( Z Z 5 =.| 0 f . X 6 = O - - ; ; . . . . o : : : O # . . . % 6 v x 6 m m 5 5.(.$.6 P m Z Z Z               ",
"              Z A k.Z Z B 5 m.&.H.Y.& X c 2 . . . X o . . < v v m v % X . o c 7 5 ; - v B 9 < 6 f.).<.| Z.M Z Z                 ",
"              Z Z Z x m 9 < < 0 j./.w * c v ; . . . . . X : : ; . . X * 6 t u o o ; 9 x 4 5 u p.I X.e m.&.r Z Z                 ",
"              Z Z Z 5 2 m 4 < < 0 <.0 < 6 Z 9 * . . . O + + + X . . # 5 5 + % ; 4 9 Z V x Z A +.< < < < 9 Z                     ",
"                Z Z N 2 B c < < < < < < < N Z N 2 ; O X X X X . . . . X $ m Z Z Z Z Z Z Z Z Z 5 5 < < 4 B Z Z                   ",
"                Z Z S G a c < 4 < < < < < 4 N Z Z V 5 # X X . . O @ > < 5 B B Z Z / ( Z Z B Z B m < 2 m Z Z Z                   ",
"                  Z { (.P.H ! S 9 < < 2 h < 4 N Z Z Z N N 6 ; ; 2 6 6 6 m c < x Z u.!.J 5 4 V Z F O.9 Z Z Z                     ",
"                  Z Z 6.e.J 0.' Z 9 2 q n.e < 4 9 9 ' k.R 9 2 2 < 2 2 2 2 2 2 x Z c o.0 < m D B M ` Z Z Z                       ",
"                      Z Z Z ( q.N Z B 5 0 < < < < 2 1.E.l 2 9 N 6 m V B B 9 6 < 4 2 l p c 7.U.( Z Z                             ",
"                        Z Z T A.j m N N x < < < 4 N b T 9 N Z B 4 6 c a ..< 4 5 < a Z.M.Z e.d.A Z Z                             ",
"                        Z Z m G n 5 < 6 ~ L 6 0  .p.A Z Z ~ M 5 < 6 6 >.G.N N c < y j.%.Z Z Z Z                                 ",
"                            Z Z Z B 5 < <.-.4 p m.m.b 9 b j.+.c v Z Z A ( D v < 0 X.*.Z Z Z Z                                   ",
"                                Z Z Z m M ,.9.B v u < < 5 0 r B m x 9 K W.) 4 4 1.~.0.Z Z Z                                     ",
"                                      Z Z 0.a.Z Z Z 6 < < 6 < 6 2 < 4 c ( m x V ^ 0.A Z Z                                       ",
"                                              Z Z Z Z C.r.A B Z V M.z.Z Z Z Z Z Z Z Z                                           ",
"                                                      8.8.A Z Z Z                                                               ",
"                                                                                                                                ",
"                                                                                                                                ",
"                                                                                                                                ",
"                                                                                                                                "
};
