/* XPM */
static char *result[] = {
/* columns rows colors chars-per-pixel */
"64 64 219 2 ",
"   c #020103",
".  c #080307",
"X  c #0B050A",
"o  c #0F080C",
"O  c #060308",
"+  c #130A0E",
"@  c #160C0E",
"#  c #160C10",
"$  c #190E12",
"%  c #1D1213",
"&  c #211516",
"*  c #251817",
"=  c #221618",
"-  c #261A19",
";  c #2B1D1C",
":  c #301F1A",
">  c #2E201E",
",  c #32221F",
"<  c #2F2121",
"1  c #342422",
"2  c #392723",
"3  c #3C2A25",
"4  c #3C2B29",
"5  c #372828",
"6  c #3F302E",
"7  c #412D26",
"8  c #412E29",
"9  c #44312B",
"0  c #4A352E",
"q  c #4E392F",
"w  c #4C3731",
"e  c #4D3932",
"r  c #533D34",
"t  c #543F39",
"y  c #503A2F",
"u  c #3F5126",
"i  c #425526",
"p  c #455C2A",
"a  c #4B5D2C",
"s  c #445928",
"d  c #564036",
"f  c #594237",
"g  c #574139",
"h  c #5C443A",
"j  c #5F483D",
"k  c #4D5E32",
"l  c #515F33",
"z  c #48552C",
"x  c #60463C",
"c  c #644A3E",
"v  c #4C632D",
"b  c #4D692E",
"n  c #45612A",
"m  c #51642E",
"M  c #52692F",
"N  c #4E6431",
"B  c #4F6A31",
"V  c #536532",
"C  c #546B33",
"Z  c #5A6D35",
"A  c #5C6C3A",
"S  c #586739",
"D  c #557234",
"F  c #5A7336",
"G  c #5B7936",
"H  c #5D743A",
"J  c #5D7A3A",
"K  c #567238",
"L  c #626C3C",
"P  c #62753C",
"I  c #637B3D",
"U  c #697C3E",
"Y  c #667739",
"T  c #5E4841",
"R  c #654D42",
"E  c #694E43",
"W  c #6C5245",
"Q  c #6B5247",
"!  c #715546",
"~  c #725649",
"^  c #755A4C",
"/  c #795D4D",
"(  c #745846",
")  c #7B5F51",
"_  c #775D50",
"`  c #5F6C42",
"'  c #646F40",
"]  c #7D614E",
"[  c #657541",
"{  c #697544",
"}  c #657C41",
"|  c #6B7C43",
" . c #6E7B4A",
".. c #717D45",
"X. c #727C4A",
"o. c #787A4A",
"O. c #7D6252",
"+. c #777851",
"@. c #826554",
"#. c #866956",
"$. c #896B56",
"%. c #836658",
"&. c #866A5A",
"*. c #8B6D5B",
"=. c #8D715C",
"-. c #92735D",
";. c #9A7A5F",
":. c #8B6E61",
">. c #8E7262",
",. c #947662",
"<. c #967963",
"1. c #9B7B64",
"2. c #9B7D6A",
"3. c #957968",
"4. c #9C7F71",
"5. c #5D813C",
"6. c #64823E",
"7. c #6A823E",
"8. c #71843E",
"9. c #668241",
"0. c #6B8243",
"q. c #6C8944",
"w. c #6F8249",
"e. c #728544",
"r. c #738B46",
"t. c #74854B",
"y. c #79854D",
"u. c #758A4B",
"i. c #7B8C4C",
"p. c #7A8C47",
"a. c #7B924C",
"s. c #759249",
"d. c #7C8553",
"f. c #7D8B52",
"g. c #7B8855",
"h. c #7D9151",
"j. c #838D4D",
"k. c #83934E",
"l. c #858C53",
"z. c #888B58",
"x. c #849355",
"c. c #86925A",
"v. c #899757",
"b. c #959B5C",
"n. c #95A359",
"m. c #9E816B",
"M. c #988765",
"N. c #989965",
"B. c #958B69",
"V. c #A18166",
"C. c #A3846B",
"Z. c #A98A6E",
"A. c #A7896D",
"S. c #A49C6B",
"D. c #A48671",
"F. c #A68973",
"G. c #AB8C73",
"H. c #A88B7A",
"J. c #AE9175",
"K. c #AE9179",
"L. c #A79A73",
"P. c #B19375",
"I. c #B19B75",
"U. c #B3957B",
"Y. c #B6997C",
"T. c #BA9B7D",
"R. c #B99678",
"E. c #9AA265",
"W. c #98A366",
"Q. c #A4A46D",
"!. c #ABA975",
"~. c #B4A37B",
"^. c #B6A87A",
"/. c #B4B67A",
"(. c #A7B377",
"). c #C1A57D",
"_. c #B39682",
"`. c #B69B82",
"'. c #BB9E82",
"]. c #B89D89",
"[. c #AD9181",
"{. c #BDA284",
"}. c #BFAB84",
"|. c #BEA38A",
" X c #B7A984",
".X c #BBB284",
"XX c #BCA491",
"oX c #C1A484",
"OX c #C3AA84",
"+X c #C2A58A",
"@X c #C5AA8C",
"#X c #C9AC8C",
"$X c #C8AC84",
"%X c #C6B78B",
"&X c #C5AA93",
"*X c #CAAE93",
"=X c #C8AF99",
"-X c #CCB294",
";X c #CEB59B",
":X c #C9BA93",
">X c #D1B69A",
",X c #D4BA9C",
"<X c #D3B797",
"1X c #D6BDA2",
"2X c #D8BDA1",
"3X c #D3BBA6",
"4X c #CBC598",
"5X c #D4C29C",
"6X c #DAC09E",
"7X c #C1C28B",
"8X c #DBC2A5",
"9X c #DBC2AA",
"0X c #D5C7A5",
"qX c #DFC8B1",
"wX c #E1C9AA",
"eX c #E2CBB4",
"rX c #E4CFB8",
"tX c #E3D0BA",
"yX c #EDDAC9",
/* pixels */
"C V e.8.9.m F C b H a Z 6.Z F F s | r.q.!.,X,X>X*XOX-X*X+XP.R.R.'.P.R.'.R.@X>X*X<X1X#X9X4X/.v.q.q.t.M U 0.K H N D D C 5.I U a I ",
"H | P e.q.o.H C C C N m Z p 0.F S { I N.-X#XoXOXT.R.G.P.P.A.2.A.P.F.P.R.oX+X*X@X*X*X<X<X0X0X/.u.H Z F C D I N C Z n S D u.| I G ",
"| b S 7.e.{ H C b I Z F I F I H P F s.S.T.).T.R.P.R.G.Z.A.2.1.2.1.1.1.2.U.+X@X@X#X>X2X,X-X0X0XQ.r.e.F q.H H N K u. .| 9.e.P I i.",
"t.D I P P | G p v 7.7.F 0.J m  .e.t./.oXI.T.Z.R.R.G.2.2.;.-.;.-.-.,.-.;.1.P.&X+X+X>X,X8X>X0XyX4Xc.i.k.U { u.F V u.w.I G Y I I t.",
"b I m m ..e.D C P e.e.} 6.7.A 0.7.n.OX~.R.R.T.T.V.;.1.=.$.@.#.$.1.1.;.-.-.1.'.+X+X@X<X,X2X9XyXeXN.i...d.P F 0.F Y 7.M 7.q.Z J M ",
"V C F C Z Y n C D 7.H B N f.s.D Y ~.'.Y.Y.oXR.2.<.1.=.#.@.@.@.$.&.=.,.;.-.-.2.P.&XoX@X>X1X1XeXqX/.x.Z l.I Z F K P I | P r.G M 0.",
"N K D Z m X.I N H I C } C | q.r.i.).'.Y.T.P.2.1.*.#.( ! / / / ( ^ / @.@.$.*.-.1.F.|.|.@X>X9XqXeX5X4Xs.0.a.} I N D 6.Y I +.P F 7.",
"a p v V A f.X.} 7.M H u.} I Z h.S.I.'.Y._.F.1.*./ / ! W c x c c E ~ ( @.@./ #.-.D.K.{.+X@X>XrXqX8X5Xi.P { +.9.N a b H } I l P 0.",
"9.S A H X.' +.P M F H | w.b t.n.~.P.oX`.`.<.@.E W E E x r r r g x E ~ / %.&.#.@.<.D.P.+X'.#X2XeX8X:X!.[ P } C V ' [ q.0.I u.[ w.",
"C H A A S [ A V S F F 8.r.s.Q.!.P.T.P.G.A.&.! E ~ c f r r e 0 w r 0 x E W %.&.#.$.2.C.T.'.+X,X9X9X0X5Xb.I I V K A a w.z.{ g.[ y.",
"C H b n S v p { { I S t.p.b.).).~.{.G.V.,.( E W W f h t 0 0 8 w 8 3 7 0 h E _ %.&.<.1.P.oXU.;XeXeX,X6XE.I A S } y.H I o.X.0.I { ",
"0.V D p S z l P w.x.j.p.k.^.$XR.{.`.V.<.#.! c c c h r 0 3 7 8 4 8 4 3 8 w R R %.&.>.<.<.T.T.'.1X2X,X2X.Xr.q.J I } a.c.} J K [ A ",
"H K 5.C n b J D I e.p.k.S.OXR.P.T.G.2.@.O.W ~ E c 0 9 3 3 1 < < 1 5 4 3 8 t j ! &.*.$.=.G.R.T.;X1XqX1X XJ x.u.7.N | t.K a K H K ",
"K s F N D D b J H Z v./.).oXT.oXU.<.,.*.^ ^ _ E d 3 3 1 1 1 ; ; ; < 1 1 4 9 e E ^ ,.%.<.F.R.`.+X9XtX>X%XW.l.| ..A 9.| C p ' q.} ",
"6.m F a S b k H C i.N.).OX@X{.+XD.V.&.%.^ ^ Q f 7 3 1 1 , - - * = - ; ; 1 4 8 g E %.#.$.D.R.R.`.8XrX*X,X7X0.Y j.u.} C n 9.N H G ",
"C F S 0.} S 0.U C r.z.OX+X*X@XG.K.F.@.^ ! W x 0 3 , ; ; - * - % % % & * ; < 6 e t E %.@.2.F.P.+X*XeX>X-XW.s.U P { | a N s.K G J ",
"} V N K F F F v 0.5.b.).%X@XT.A.V.,.O./ ~ Q t 7 , , ; - & * & & % & % % - < 5 8 9 t ^ #.*.D.U.oX+X9X;X>XN.u.9.C 0.| m I t.e.0.W.",
"9.0.J F H C m F U F x.!.OX$XZ.A.-.] / ~ ! R 0 2 , 1 - - * % $ $ % % & & % - < 9 7 0 R / $.2.G.`.;X9X,X1X!.[ h.J J 0.i.0.p.q.p.f.",
"6.0.H r.V N H F I w.0.x.OXR.C.V.=.@.O.^ W r 9 : ; ; - * % $ % # + + # % = = * 5 7 7 x ~ %.2.G.oX=X=X,X1X4Xl.9.t.w.c.I Z a.0.c.c.",
"H 9.[ P b I { I | w.t.Q.oX|.A.1.=.#.#.) c e 3 , ; - - @ + + # # + + # $ $ = = ; 3 7 r ^ / 2.D.|.*X*X1X1X1X(.6.f.K w.| C I D S 0.",
"S C [ h.A C U P J w.N.}.oX'.A.-.#.] #./ x 0 2 > > - % @ + + X o X + + + @ % & = 1 7 0 ~ %.2.,._.*X3X9X1X,X5X(.W.q.| S J D G 0.J ",
"S C A i.H b H y.D  .N.~.{.R.A.-.@.O.:.W r 3 , 1 , % @ + X + X . X X + + # $ % = > 5 7 E @.,.,.U.3X;X3X>X-X9X5XW.0.0.D U F H { J ",
"V Z J D V H P d.I t.N.#X{.P.V.$.] &.&.R d 3 1 , ; % + o o X O . . . . o # + $ * ; 1 7 r ) &.>.Z.*X&X=X>X-XwX8Xn.0.H C C H N { S ",
"C C H C i A } H I P N.@XP.G.;.-.@.@.^ h 0 7 , , = $ + . . .       . . . + + $ $ * 1 3 w ! &.*.Z.=X*X+X*X<X8XwX/.Y v I K 9.B S H ",
"Y 7.C D b Z k.s.v 5./.+X~.Z.V.-.&.%.~ g 9 3 , - & + X X   .           . . o + $ = < 5 8 R :.*.2.+X+X'.@X*XwX8XE.J H C 5.D G J G ",
"p.p.m b M M n.Y D 7./.#XT.A.1.1.3.&.Q r 3 2 > * % + X                   . o + $ % < 4 7 t ^ *.2.].+X'.@X#XwX,Xn.I I C I C v U J ",
"p.0.n m F I Y V J r.^.+XT.J.m.3.3.&.E r 3 1 ; ; % X X .                 . X o @ % - 3 7 r ~ *.<.&X;X'.oX#X,X0XE.s.0.U F C G } I ",
"U G s Z C C 7.Z 7.0.I.oXY.J.m.m.4.O.x e 4 1 < ; @ + X                     X o + $ = 1 3 w Q *.1.].&X+XoX@X,X5XW.6.7.P A J 7.I U ",
"Z F a V a V Z Y F x.OXT.T.A.-.=.,.^ j 0 7 ; ; * @ + .                     . . o + - 5 1 w E %.2.K._.@X'.#X1X5Xb.C r.F D r.m I U ",
"Y i v M P G I | b N.OXT.R.1.=.@.%.Q f 9 9 , ; * @ X .                       . o + = < 1 w E @.1.G.].oX'.-X6X,Xv.D | 0.F p.Y U r.",
"G C N A M M I y.7.| ~.oXK.V.;.#.:.Q t 9 3 , , = + + .                       O o + % 1 1 w W @.,.K.&X'.'.{.>X-Xn.F | e.F Y Y e.s.",
"I b M C m H D I 9.r.~.#XU.V.-.*.%.Q f 7 7 2 ; * + X .                       . o o % ; 1 w W @.*.K.U._.'.@X,XOXx.} | l b D U M e.",
"t.s z J S Z Z P 7.n.OX+XoXC.1.*.] W d 9 9 1 ; & + X O                       . . o & ; 1 w Q O.3.K.K.|.{.#X,X^.s.} J P } C H { r.",
"} C v B G I F t.L b.oXT.T.2.2.<.O.c d 0 3 1 - * + . .                       O . o = ; 1 w R / 3.F.J.'.Y.*X-X/.a.a.F [ A v J [ e.",
"D p J V a A | r.{ ..OXT.R.2.2.,.O.R f q 2 2 > * @ X .                       O . + * = 2 w R / 3.G.K.Y.U.-X-X7Xa.x.H N v p F a.y.",
"G D 9.7.N a A F P U T.Y.R.C.,.$.] c d 9 9 2 > - # + .                     . . . + & - , w R O.D.F.K.P.U.*X@X4XW.i.0.A { D I j.r.",
"B J s s G C L m 7.j.^.oXG.A.;.@.~ c d 9 9 4 > - % # O                       . X + & - , w R ^ [.F.F.P.|.'.@X:XN.y.F I P 6.I 7.e.",
"u H U F q.| i.U P ..I.#XG.1.,.#./ W h q 6 4 < - % o X                       . . + & ; 1 t R ) 4.m.F.Y.+XT.-XXXc.Y I | H n | U 7.",
"l  .q.Z ..N.B.d.t.8.S.oXP.A.-.@.@.~ R q 3 9 1 - % # o .                     O o $ $ - 1 t R %.4.D.F.Y.'.T.<X^.c.H D K N p X. .0.",
"{ l.C C | ..t.z.I G l.{.P.C.<.@.@.) W q 9 4 5 * * % o O .                 . . + $ $ ; < T R :.D.m.F.T.T.T.-X Xl.0.P n } 5.' { J ",
"+.{ z } H S q.o.H C t.^.J.m.V.*.O.^ ^ d 4 4 2 - & $ o X O .             O O X $ $ = ; 2 T T :.4.-.A.U.{.{.;XL.t.f.{ D J H w.X.9.",
"A I u J f.[ A H u } N. XP.V.2.=.O.^ ^ g 9 7 3 > ; & # o X               O O o # $ ; ; 8 T R :.>.-.V.K.T.'.*XQ.u.l.Z C } H J 9.t.",
"0.p V H +.+.} 6.} U l.OXU.C.1.<.#./ W h d 3 5 > < = $ + . O .         O O X # $ = * - w T ~ :.$.<.V.J.U.'.}.i.y.N.} V 9.K C 9.q.",
"| F | ` [ X.[ [ w.} e.}.P.C.A.2.&.O.~ h d 9 , > - = = $ o X O .   . . O O o $ % & * 1 e R %.>.#.<.Z.G.K.}.!.h. .z.{ 6.V K B B J ",
"..{ ' | S P F S H w.X.{.`.m._.].$.O.( c f q , , < = = % + + X X O O . . + # $ % & - 4 T Q :.%.%.2.Z.G.T.&XQ.{ U g.N.0.H ' a N w.",
"L l { r.M C B K J 0.z.@X X[.]._.#.$.( c h d 7 3 5 - & % $ + o + o o . + + + % % & ; w g R :.%.&.1.A.P.oX*Xz.7.6.H c.I 0.' B K 9.",
"S C C H J D V a L } | L.Y.Y.XXH.=.;.] f x f d , 8 5 ; & = $ + $ # X + # # % * % * 2 0 f Q ) ) *.2.G.G.). Xr.6.| |  .P C I P C J ",
"m C C C S B u N A K C P !.K.F.].m.-.-.c f f f 9 8 4 1 & $ $ $ + + X + $ % * = = - 2 0 g ~ ^ :.3.;.Z.G.'.^.x.Z 0.0.S V J C D S } ",
"H C s P C S v G M F J J L.U.F.[.>.$.=.] h j f q 7 8 1 ; % $ $ $ $ $ $ % & & & * < 4 w R ! ^ ,.<.2.V.G. Xc.S H X.9.P I q.I G F P ",
"F } C b I Y 6.G C J H 0.N.R.Z.U.m.=.=.] W f x r 2 7 1 2 8 - % % $ $ % & & & & = 4 t g R Q @.*.<.Z.P.{.~.u.` r.A g.` C F 7.Z C F ",
"H l | C L V C s C C A w.z.R.Z.G.K.=.=.@.@.R j t 0 4 8 5 5 5 > % & & - * & & ; 1 5 t R Q ) >.*.F.[.K.|.L.f.} y.{ { w.G U D V D w.",
"C N N V V P } D N 0.| t.c.P.U.D.J.$.$.] O.~ j x r w 8 4 ; > 1 5 ; * - ; - ; 1 3 w h Q _ >.&.=.m.U.&X|.Q.} H K H v H F A Z S D D ",
"v b I [ | H I t. .c.} b  .S.`.K.K.,.&.] O.~ R j t y 7 7 2 > ; 1 1 1 < < 1 , 2 w T R R Q %.&.<.<.|.|.{.^.v.F l k D } F B H F H 5.",
"s a U D m [ A P g. .A P A l.P.U._.F.#.@.#.~ Q h h r 7 8 7 3 2 1 1 2 1 , 1 8 0 t T h E ^ @.,.<.D.`.`.oX!.i.t.N B 0.[ } v J } A C ",
"D V s b I Z L X.S l { | I | T.T.Y.K.-.#.@./ _ Q x h y r 9 7 w 0 7 7 2 7 7 w w t T E ^ ) *.2.2.].'.Y.#Xb.X.c.N D 0.7.} B n K ' n ",
"D s b M v P V l { N F F P M z.~.T.'.D.*./ =./ ~ E x t h r 9 7 7 7 2 7 8 w w w T E ) @.:.,.C.G.{.K.@X#Xv.u.l.A C n J 0.C J } K v ",
"D q.C D i Y D i H J D C C J f.W.~.|.H.,.*.] O.~ ( c x f r t f 7 7 0 0 q y r r c ^ ) @.*.2.2.G.P.P.-X}.c.e.[ U 7.S 7.M U 7.D s H ",
"Y r.6.0.v M M m P 0.v H | C v.(.L.&X].;.#.#.] / / c x f y r r q 9 q q y 0 r c ~ ! _ @.>.2.C.G.Z.oX-XQ.9.{ P e.m C K 7.P e.J D I ",
"8.I I s V m a Y P B G w.t.-.v.n.l.].|.m.=.,.&.%.( @.c x r r f r r r y t r x E ! / O.O.,.[.H.Z.Z.@X{.!.7.J 0.M I J D D P S D D C ",
"G I i F b J Z F U v K C z.N.v.n.k.F.[.J.2.<.=.m.@.@.@.c x x c c t x c E E E / ~ O.%.3.F.F.F.G.K.P.#X~.a.I A a I Z b C F b C K n ",
"n Z a Z Z G Y j.I C I | l.P U Y n.{.&XJ.m.<.=.3.,.O.^ ^ c ( @.( R E E E E ! ^ ) ] =.2.m.D.J.I.oX-X%XN.7.| P F b D D H 7.G F M p ",
"D a G m Z 6.M Z M m 0...e.p.t.a v.J.=X].F.G.,.=.-.=.] / c ( / c W E E Q / / ) @.#.=.,.m.C.Z.{.~.~.J.S.e.P a.0.b } J H Y G J s p ",
"I C S M i m m H U M A P b Y P e.w.i.&X XG.`.G.>.,.3.] @./ c ! ( ! W E ^ ^ O.%.#.=.-.m.V.1.P.{.~.E.S.b...I | Z C N S Z U F n C V ",
"M v a v b C C p.L n C v C i M p.} [ N. XK.C.U.m.,.=.*./ / / ( / W ~ _ ) O.&.#.,.=.<.V.Z.Z.{.-X%Xj.E.e.Y y.H P I J D U M m b S Z "
};
