/* XPM */
static char *_a709576fdee4c45e410b727dbe3c6b75RTeLQ2prgQxJzEo[] = {
/* columns rows colors chars-per-pixel */
"64 64 149 2 ",
"   c #1D6717",
".  c #1D6917",
"X  c #17661E",
"o  c #1A661C",
"O  c #176A1E",
"+  c #1C6B1C",
"@  c #1E721E",
"#  c #236D16",
"$  c #286F16",
"%  c #226E1C",
"&  c #286E1C",
"*  c #257316",
"=  c #2B7516",
"-  c #2D7A16",
";  c #24731C",
":  c #2B751B",
">  c #257A1D",
",  c #2C781C",
"<  c #2C7B1C",
"1  c #307615",
"2  c #307516",
"3  c #317616",
"4  c #327616",
"5  c #307616",
"6  c #317813",
"7  c #337914",
"8  c #337815",
"9  c #337915",
"0  c #307816",
"q  c #307916",
"w  c #327816",
"e  c #337916",
"r  c #327A17",
"t  c #347915",
"y  c #357916",
"u  c #357B16",
"i  c #367B16",
"p  c #367A17",
"a  c #317C16",
"s  c #327C16",
"d  c #317F17",
"f  c #377C15",
"g  c #347D16",
"h  c #347F16",
"j  c #337C16",
"k  c #397B16",
"l  c #387C15",
"z  c #387C16",
"x  c #387C17",
"c  c #397D17",
"v  c #3A7D16",
"b  c #387F16",
"n  c #3C7F14",
"m  c #397F15",
"M  c #31771D",
"N  c #307A18",
"B  c #307B18",
"V  c #317B1A",
"C  c #327B1B",
"Z  c #337E18",
"A  c #327C1B",
"S  c #397F1A",
"D  c #166322",
"F  c #1A6621",
"G  c #176B23",
"H  c #1A6A20",
"J  c #1D6E20",
"K  c #1C6C22",
"L  c #187021",
"P  c #197021",
"I  c #1C7320",
"U  c #1D7322",
"Y  c #1E7421",
"T  c #1D7322",
"R  c #1E7923",
"E  c #216721",
"W  c #226D21",
"Q  c #296F21",
"!  c #207421",
"~  c #217620",
"^  c #227620",
"/  c #227720",
"(  c #237720",
")  c #237422",
"_  c #2A7521",
"`  c #277920",
"'  c #257A20",
"]  c #247A21",
"[  c #287C20",
"{  c #297C20",
"}  c #287C21",
"|  c #2A7D20",
" . c #2B7B21",
".. c #317721",
"X. c #317C20",
"o. c #2D811E",
"O. c #308017",
"+. c #328217",
"@. c #348016",
"#. c #358016",
"$. c #348017",
"%. c #378116",
"&. c #378117",
"*. c #368717",
"=. c #348116",
"-. c #388315",
";. c #388017",
":. c #3A8415",
">. c #388517",
",. c #3A8517",
"<. c #3A8716",
"1. c #3B8717",
"2. c #3D8616",
"3. c #3B8316",
"4. c #3C8815",
"5. c #3E8917",
"6. c #3F8A17",
"7. c #3E8817",
"8. c #308018",
"9. c #338018",
"0. c #328118",
"q. c #368218",
"w. c #368319",
"e. c #35851A",
"r. c #36851A",
"t. c #30821F",
"y. c #34831F",
"u. c #33831D",
"i. c #388418",
"p. c #398619",
"a. c #38851B",
"s. c #3A841B",
"d. c #36881E",
"f. c #3E8918",
"g. c #3B891C",
"h. c #268022",
"j. c #2D8121",
"k. c #328220",
"l. c #368920",
"z. c #418617",
"x. c #418915",
"c. c #438C16",
"v. c #448B16",
"b. c #4A8D15",
"n. c #41871B",
"m. c #408B18",
"M. c #418B1B",
"N. c #4D9016",
"B. c #49921A",
/* pixels */
"= = = & o o o o o o o o + + @ ; : ; ; ; > ; V % o + + H % > ^ ' 9.6.:.:.- %.;.%.s f - = = = # o # . o . o # o . o o = r 4 = m = ",
"= : : % % + o o o o o o + + + @ J + ; = = % & o % o F J ; ^ ^ } f.:.0.0.+.- :.%.s ;.f = = = r = =     # $ * o . . = u u m u k = ",
"= : & + + % + o o o o o + o + ; = % = - V + + + + ; % J ' ^ Y | M.p.9.:.+.6.x.2.Z - s = = = = = $ # $ $ = $ . #   = 6 = u = = u ",
"= = : & % o + + H o X o + o o + % + % : : % & ; + < > I I ' | | p.9.c.6.=.:.%.s %.V V - r m r * * = = $ #   # .   = 7 n m 4 = k ",
"% = : : % + + + + & o o o + o + ; - = = : ; ; J O + + P P ^ t.u.p.r.r.p.0.< < * ; - = ; = r r * = = u 4 $ $   ; = = 4 = f m 4 % ",
"% % = = : % % ; = ; X o o o + o ; * V M : + < > o P P G P / < t.e.< 0.M.r.> < > @ = = - = - : m u $ = = r = o o $ # = = r r $ # ",
"% % ; : % = : : = ; + @ + + + + - - < : % @ > < J J P Y ^ < < y.o.e.o.t.o.> > > @ ; ; - Z - ; = u = 4 = = = . # = m r = u 7 r 4 ",
": = r r = - V % % = = ; ; % ; - 9.- ;.V < u.> + J P U > | < o.t.d.M.t.o.o.> > / I ; > - Z - ; * ;.f = # = f = = = ;.r = = 4 f 4 ",
"= ; - : ; = V = - = ; - V : : - Z < Z - 0.< ; < I P Y ; ) ( I ' u.e.| j.g.t.| / > > < - < * Z s f f - f = r r r # * # * # = * % ",
"= = ; - s = V = f Z = = Z - : @ > > : 9.< ^ I < } / I I I ^ ^ } t.< ' } t.< o.> o.o.t.u.o.r.c.:.f r s 2.; - - = * * = * :.m = ; ",
"* = ; ; - f V * s Z * ; = < ) < < > e.e.> I P > ^ Y I @ R Y / j. .| < ( } ' ' < t.> ' @ > 9.< - = ;.:.f - s 2.- s r * * 7 - = - ",
"# = r = r r = * Z - Z Z = - > < > @ o.< Y > > > ) Y Y > R ^ ' ( ^ ' | ' ^ ' ' k.j.' ' ; > < ; ; > 0.0.; = Z :.%.* - * * = * * * ",
"% $ f u f f r 2.V ; - - Z 9.; > < ^ ; > / < > < ; > > ' > ^ ^ J ( | ' ' | k.j./ Y ' ' ' < < ; > < 0.- * - +.+.- * - - # * ; . + ",
"$ r m f m ;.3.;.- Z Z %.%.- * Z < } < o.< < y.< < > ; < > A ) T ) _ ) | j.j.' Y ^ / < u.< > > > < < > < +.=.s - - * * * * % + + ",
"# r = = r ;.f ; = ;.b.c.x.:.f.g.o.- < : < < e.g.< < > y.y.u.) > ) _ ( ' j.j.| k. .^ } ( / ] / > > > 0.+.s s - %.s * - * + + o o ",
"# # = = = m f f ;.Z :.:.9.2.p.o.< 9.< t.< < y.e.t.t.t.t.o.o.> | ) ) _ k.k.k.'  .| / ^ ^ / > > > > < - * * * - +.* * %.= ; % + + ",
"# % = r 3.3.= V ;.- s Z ;.Z - < < M.p.A < < g.a.A t.y.k.^ < j.' ( | } j.u. .T  .k.' / ^ / > > > o.o.o.* = * - - ; * * - = % ; ; ",
"; ; = = m Z % - 9.- ; = ;.1.9.9.< 9.p.< < < t.y.y.e.d.y.t.u.} ( X. .' k._ ' ^ ( ' ( ^  .< < o.< < r.0.> * s Z ; ; ; * ; ; % ; ; ",
"; = = V - ; = * * < Z S f.0.Z Z ' < t.< < < < t.d.d.e.j.t.X.W K X.X.t.X._ _ X.} R T Y ( < < o.t.< r.o.> < < > + ; % * % ; + ; ; ",
"= V m Z - = Z ; ; ; : ;.9.< < 9.) ) < < < < < < < a.u.j.' X.) W  .X.' ' ' X._ K X. .} t.| r.e.a.o.< < < * * > ; ; ; * % ; ; - * ",
"= = = % ; - = + = Z < Z > ; & V ( J ) > < ' < t.u. . .} ' X.} R ) ^ ( ^ } } ) K ]  .t.e.o.t.y.a.< < t.> Z Z = ; ; * * ; ; = = * ",
"% % % : = = + % : Z Z Z , A : ) ^ J ) ) ) ) < A t.u._ k.k.k.' ] | ' ^ '  .A / ) ' ' ^ | t.o.y.y.e.g.< > < < > % > : - * ; ; * ; ",
"; = % = = : + : ; ; W % M , K : _ ) : W K ) _ X.} _  .a.) ^ k.| j.' ' k.j.u./ } | ( ^ ( o.e.d.a.o.d.o.> < < - ; - > ; > = > : = ",
"; ; ; ; ; % % J J % % ; < % H W M _ M W K W ) < _ < t.< ^ ^ k.y.j.j.j. .' _ ) ( < ( < < y.e.d.d.| e.f.< < < < < Z ; ; V : - = - ",
"= - : % : ; % J ; H % M : J W E W M ; W ) W W ( ' d.t.( ' ^ j.e.j.o.e.t.Y ^ ) ) } } < y.e.d.d.y.d.y.< t.0.9.;.- V , - Z < Z Z V ",
"- V , = : > ; ; : F ; - ; % ; Q & , : W W K W I | e.o.^ } ' j.j.o.y.y.t.| } ) ( M _ e.a.a.d.e.a.M.d.f.u.p.a.a.< A S ; = Z Z M A ",
"< : = = , : > ) % o : > % & : , W % W K & W ) ( < < ( ^ ^ ' ] j.d.d.d.k.t. .) ^ < } < }  .| k.k.t.y.g.u.a.f.t.u.s.S < 9.A A 1.S ",
"< M V : Z A : H H H ; : K W W _ % : : W M : _ _ A ^ < ( ' / ' h.j.d.d.t.< k.< ^ } ( ( }  .o.e.u.o.t.d.f.g.g.p.s.s.: M s., < u._ ",
"> > ) > : , % ; & K W , : W W W : M : W : ; : _ u.( ' ' I ^ ' ' t.y.e.' '  .X.K ( ) ^ } } j.e.o.j.d.g.j.d.a.a.1.n.A _ A ; ) < A ",
"; ) < A : : % ; K D D K W : Q W W M W W : M A ( ^ ( < ^ ) I  .y.e.d.t. .X.} ) ) ) T ^ ) (  .} | k.l.d.y.d.y.< A M.A _ A M ; ) _ ",
"I ) ( _ < : H K W F D F F ) W F F X.A W ) _ _ ^ } } } X.} ( t.e.t.t.y.a.} X.k.W K F W _ } j.k.k.j.j.d.k.M.d.M.g.X._ _ _ , : ) ) ",
"I I ^ ( ) W D F W E F W W W W W & ) : , ) _ ( _ A ' ' | ( ' } }  .' e. ._ _ M.X.W W W _ ' | j.j.d.g.g.y.M.B.B.d._ n.X.) _ _ W ) ",
") } } _ M ) _ W J H ; : : : W _ : K : , M A ) ( } ^ / | ^ ) ) ( _ < u. ._  .k.) W W ) K j.k.} j.h.l.l.j.j.l.| /  .a.X._ S _ _ W ",
"< < < : ) , M K K W F K H F , ) J D A A s.u.( ) A < / ) W K ) _ _ A s.X.g.' } ) K W W K ) j.k.j.] j.l.j.e.l.| ( _ _ ) _ X._ W W ",
"; ; ; ; + : & % % : & W W W M K D W _ A A _ _ ) } ' ' ) _ ) ) _ X._ _ _ X.) } ( ( _ _ ( } k.j.| ) j.a.e.a.j.' u._ ( _ X._ W ) W ",
"; * : * = = K o + + ; W ; M , K ) < A M < < A _ _ | ' ) ) ) W W _ _ _ _ _ _ X.) T ) ) _  .X.k.| k. . .u. .| < <  .A ) ) & W ) ) ",
"; = * Z Z = % : % ; ; : ; % J J ) ^ } > ) , , ) _ M.} ) K ) F K ) _ X.X._ ( _ W K W _ _ k. . .k.g.k.X._ ( X.' } _ u.> ; ; ; , < ",
": ; = s * % % ; + ; > < J @ W J ( _ ) ) ) _ ( _ )  .} W K R T ) ) ) _ _ ) ) _ _ K K T T _ } ) k.X.X.} A < < t.X._ < < Z Z > - - ",
"= : f r * * * ; ; : ; > % : ( G P ) ) < M A _ A I / ) ) W ) R ) } _ k.X._ _ _ } ) W ) J ) _ _ _ ) } _ X.< ( A S M M ; V - : < - ",
"s ; = * * ; ; + ; < Z < J ; ( G J I )  .) W _ _ ( _ _ K _ } ^ _ _ X._ _ A X.( X.) ( ) W K ) s.X.X.X._ _ ) ) _ M A M % Z ;.= - Z ",
"s = = = ; Z - * ; < < < J ) } R F F I ^  ._ _ _ ) _ ) I ^ ( ( W W ( T _ M ) ) A _ ( ) W K _ ) _ .._ ) M , < : , , ; & - ;.- - s ",
"- - f - * > - > - - < > < ^ ^ ) K J I Y ( _ M X.K _ _ ^ / ) K K ) ( )  ._ ) W ( _ W W ) ) _ _ _ _ ( ) ) M A < M < A 9.= - Z = - ",
"f = - - ; ; < Z Z Z < < 0.; ) ) F F I ' _ _ _ ) ) ) X.^ R ^ J K ) R  .j.' } _ < : ) : ( s.A M X., M X._ < < > ; < u.< * Z Z ;.;.",
"f * - %.* * - ; * @ ; < > P ( < ^ ) > < , t.t._ X._ ) ) ) ^ T ) T ) | ^ Y ( _ _ _ : < , s.< ) ) _ ..W I A _ < > A < ; * < %.f :.",
"- - - - - > ; ; ; ; - < @ + I ^ ( K , , _ < ) A M ) , ( ( ) K T T T T ) R ' < _ < A M ) ) ; ) ) _ _ W J } < o.A 1.: ; * - < s f ",
";.2.- = * * ; ; ; > < < @ ; + ^ J K o % K J < _ ^ ) _ A ' ' ^ T K T ) T R ' _ ) < u.M ) : < W A S _ ) W ( ^ < u.1.= > - Z ;.;.2.",
"2.9.= s r - > @ * < > ; @ ; ; < J F F & W ; 9.< ( ( _ ) ^ K ) I ) T ) ' / Y ' A _ < _ M u.( ^ < : ) : < < t.A ; * = V Z s s s 2.",
"Z - - * r = ; ; @ ; ; > > < > < + @ % ; % V Z < < A } > ( ( ) I T T T ' / ] / } A A } ) < ( I W ^ _ < > < A M ; - - = Z 3.2.V f ",
"9.= %.- Z * * > < - > < o.o.+ J ; + ; < ; < < < < > / > < > > ' ) ] ] j.] h.j.' A A ' I < < ) J J ) ( < > < > < Z p.Z ;.;.1.;.3.",
";.- f %.Z - - ; > > ; < o.< ; ; + ; < A ; - < < > ; > ^ < t.> ' R ] j.j.] j.o. .< < } } > ( > J J J ) < A A < : - - - Z Z Z z.n.",
"Z Z V Z - ;.- * ; * < < o.> < < @ + > ; < < > < > < < / ' < ' '  .} R h.h.y.y.t.t.< A < ; > I J J J ; > A A ( ; A < - ;.3.S Z S ",
"3.3.9.- - - * - * ; < Z < > > > @ + + + + Z t.A ; > ' Y < < / |  .| R ] ] o.k.j.> <  .^ I t.< ; J ; ; : < < ; > < < ; V 3.3.Z S ",
"1.z.2.2.- ; * ; ; : < < < > @ < < J H H @ < t.< @ < < ' ^ ' ' ( j.' | j.R / o.> / t.< Y I I > ) @ < , < A < A < > : = M A Z A ;.",
"9.Z ;.;.- = - @ 9.Z < < > < > ; ; ; + & > : , ; > > > ^ U '  .j.j./ ' ] R / o.' j.o./ Y Y P @ I > > ; % % , , ) : n.S S S 3.z.S ",
"N.b.3.Z V V ; + < V : > : 0.- @ ; + ; : , < : : Z > ; I Y / } j.k./ ] j./ Y R Y ' / Y ^ @ + @ + + + % ; % : > ; > Z A V Z 3.m V ",
";.v.z.3.; = : % + ; + @ - * + @ Z ; ; % + o + : % H ; < < <  . .] / / ' / R / Y ^ > ; ; @ ; @ @ @ + + + : : ; ; + + & ; V V = = ",
"V Z ;.V ; = : + o + + > > @ + @ @ @ o o + o % > o F G ; A < t. .| k.| ^ ^ Y @ @ @ @ ; ; > ; @ @ + + + % > ; + ; + % + = V V = = ",
"f ;.m = r = % % + + @ - > O @ @ + O o o O + : > + + H ) ; ( ^ Y j.o.^ ^ u.< > ; @ @ ; ; > ; @ + + o o o + + + + + + + = = % = : ",
"A 4 = r = + = % + o + ; + O @ @ + X X o o % + o o o o + o W ) ^ < ; @ ; - 0.> > > > * < * ; ; ; + + o + + + o + o o o % % % : : ",
"= : = = + + ; = ; + X o O + + + o O o O + O o o o D F D o F ) < < @ > > > * - > 0.+.- - - * @ @ + + o + + + + + o o + % % % % o ",
"% = V - + o o + o o + + + + + O o O @ O O + + + o + H F K F ) < ; * < < - - - - - =.+.O.* * @ % + + + + + o o + o o o o .     % ",
"% A = % % o + o o + + + + + @ + + + P + o G > ^ J F D H K J J ) > - < < - %.s - - +.- * * - ; + o + o o + o . .   o # o o     % ",
"$ = : + o o o o o o + O + @ @ + + J J P J J @ @ J J F H K ) K K ; - - < f %.- - s - = - - = # . o . + .     .     . . o * $ # % ",
"= = : + o X o o o o o O O P P + J P Y P J @ Y Y I ) J J ) W W W M Z - - V %.%.;.;.s s - - - * . + o . . . . .   .   $ % $ = = = "
};
