/* XPM */
static char *b12754b2bd2c469abea7c007e9ef65eaqPmtMpnWbBaoSQQH[] = {
/* columns rows colors chars-per-pixel */
"64 64 213 2 ",
"   c None",
".  c #392A35",
"X  c #2E2F3A",
"o  c #471C2A",
"O  c #45222D",
"+  c #5C282C",
"@  c #442531",
"#  c #492934",
"$  c #542D36",
"%  c #572C3A",
"&  c #5D333C",
"*  c #55343D",
"=  c #4D363D",
"-  c #62282C",
";  c #752C2D",
":  c #792D2D",
">  c #7C312E",
",  c #642437",
"<  c #7D3632",
"1  c #78413D",
"2  c #233642",
"3  c #233945",
"4  c #263D48",
"5  c #3E3B46",
"6  c #5D2D43",
"7  c #5B3246",
"8  c #48384D",
"9  c #652943",
"0  c #603046",
"q  c #653A41",
"w  c #693D43",
"e  c #6C3249",
"r  c #763C4E",
"t  c #783950",
"y  c #23434C",
"u  c #28464D",
"i  c #39414A",
"p  c #254D52",
"a  c #2B4A51",
"s  c #394752",
"d  c #255253",
"f  c #265559",
"g  c #295659",
"h  c #38555A",
"j  c #266259",
"k  c #395E63",
"l  c #2A6362",
"z  c #2A6B65",
"x  c #2C6C69",
"c  c #336664",
"v  c #356A67",
"b  c #386D6A",
"n  c #376D69",
"m  c #2C756C",
"M  c #2F7C6E",
"N  c #2A7160",
"B  c #357866",
"V  c #2F7D70",
"C  c #48434D",
"Z  c #474753",
"A  c #454953",
"S  c #484A54",
"D  c #49555A",
"F  c #525C5D",
"G  c #50565E",
"H  c #524453",
"J  c #68474A",
"K  c #78494D",
"L  c #754649",
"P  c #7E4455",
"I  c #724654",
"U  c #725354",
"Y  c #78555A",
"T  c #654E59",
"R  c #55605F",
"E  c #565D61",
"W  c #4E5266",
"Q  c #785665",
"!  c #526C6C",
"~  c #717473",
"^  c #6D6D6D",
"/  c #83362F",
"(  c #863B33",
")  c #8C3D31",
"_  c #883C3C",
"`  c #8A423A",
"'  c #8E4232",
"]  c #954534",
"[  c #934A33",
"{  c #9C4B34",
"}  c #944839",
"|  c #9E533B",
" . c #A35336",
".. c #AC5939",
"X. c #A75639",
"o. c #B15D39",
"O. c #A14F34",
"+. c #B5623B",
"@. c #B9683E",
"#. c #B8653D",
"$. c #974A47",
"%. c #9B5843",
"&. c #87495B",
"*. c #935656",
"=. c #A85A45",
"-. c #A85A55",
";. c #A76347",
":. c #AA664A",
">. c #BC6C44",
",. c #B86747",
"<. c #BB6954",
"1. c #B77855",
"2. c #AA6F53",
"3. c #995C69",
"4. c #874F60",
"5. c #AC5F62",
"6. c #9A616D",
"7. c #8B6E79",
"8. c #88797D",
"9. c #9F6C6E",
"0. c #AB6268",
"q. c #B66867",
"w. c #B86C73",
"e. c #BC717A",
"r. c #A97177",
"t. c #C47856",
"y. c #C37752",
"u. c #C37576",
"i. c #C5756F",
"p. c #2F8A6E",
"a. c #308D6E",
"s. c #2F8A71",
"d. c #319677",
"f. c #319A76",
"g. c #319978",
"h. c #318F71",
"j. c #34AC7C",
"k. c #35A278",
"l. c #35B17E",
"z. c #5B8675",
"x. c #B9825D",
"c. c #87817E",
"v. c #CD8D5A",
"b. c #C78759",
"n. c #D18F5B",
"m. c #CC915D",
"M. c #D1915C",
"N. c #CC8A68",
"B. c #D39964",
"V. c #D08E70",
"C. c #D29275",
"Z. c #D9A36B",
"A. c #D7A973",
"S. c #E0AC6D",
"D. c #E5BA7A",
"F. c #E1AF72",
"G. c #326A80",
"H. c #817C81",
"J. c #AB7B82",
"K. c #CA7D85",
"L. c #388E9F",
"P. c #368FA7",
"I. c #48AA81",
"U. c #669AA2",
"Y. c #4C98AF",
"T. c #37BBD5",
"R. c #63BCCA",
"E. c #5BC6D8",
"W. c #7EC5CE",
"Q. c #908D8C",
"!. c #B78487",
"~. c #B29995",
"^. c #8DB195",
"/. c #B3A59A",
"(. c #B29EA7",
"). c #98A4AB",
"_. c #CC838A",
"`. c #D2858D",
"'. c #DA9799",
"]. c #D0978C",
"[. c #CBA89B",
"{. c #DEAA91",
"}. c #E3B09D",
"|. c #D39AA0",
" X c #D2B4AA",
".X c #E6B9A9",
"XX c #E6B4AE",
"oX c #EEC682",
"OX c #EDC683",
"+X c #F0C984",
"@X c #F7D58D",
"#X c #F9DA90",
"$X c #FBDD94",
"%X c #F7D790",
"&X c #C6C7BF",
"*X c #E9C1B3",
"=X c #EDCABB",
"-X c #E4CBBD",
";X c #F1CBBB",
":X c #F0C8B7",
">X c #87BDC7",
",X c #C5BBC0",
"<X c #ADC9C8",
"1X c #92DBE7",
"2X c #ACDEE5",
"3X c #9EC9D1",
"4X c #CEC6C3",
"5X c #D1D1D0",
"6X c #F1DBD3",
"7X c #F0D5CC",
"8X c #F9E5DD",
"9X c #DFDFE2",
"0X c #ECEFEF",
/* pixels */
"                                                                                                                                ",
"                                                                                                                                ",
"                                                                                                                                ",
"                                                                                                                                ",
"                                                                                                                                ",
"                                                                                                                                ",
"                                                                                                                                ",
"                                                                                                                                ",
"                                                                                                                                ",
"                                            ; ; ; ; ; ; ; ; : : : : : : : : : : : : : ; : >                                     ",
"                                            ; ; ; ; ; ; ; ; : : : : : : : : : : : : : ; : >                                     ",
"                                            ; ; : : : : : : : : : : : : : : : : : : : : > >                                     ",
"                                            ` ` ` ` ` ( ( ( ( ( ( ( ( ( ( ( ( ( ( ( ( ( ( (                                     ",
"                                          %.1.x.x.1.1.:.;.;.;.;.;.;.;.;.;.;.;.;.;.;.;.;.;.%.(                                   ",
"                                  : : : < %.A.OXOXOXF.B.m.m.m.m.m.m.m.m.m.m.m.m.m.m.m.m.b.:.( >                                 ",
"                                  / / / ( %.Z.OX@X#X+XF.S.S.S.S.S.S.S.S.S.S.S.S.S.S.S.S.Z.1.} (                                 ",
"                                / ] { { { =.b.Z.oX$X#X+XoXoXoXoXoXoXoXoXoXoXoX+X+X+X+X+XD.m.X.] ( :                             ",
"                              : / { ..o.o.+.>.y.F.%X$X$X#X#X#X#X#X#X#X#X#X#X#X#X$X#X$X#X@XZ.>. .) >                             ",
"                              : / { o.+.+.+.#.>.B.D.OXoXOX+X+XOXoXoXoXoXOXOXOXOXOXOX+X+XOXB.>.X.) >                             ",
"                          : : : / { o.+.+.+.+.+.:.2.1.v.n.M.m.v.v.M.n.M.M.M.M.M.M.M.M.M.v.y.#. .) >                             ",
"                        : : : : / { o.+.+.+.o...} ` { +.@.#.#.#.#.,.>.>.>.@.@.@.@.@.@.>.#.o...O.( :                             ",
"                          : : : / ]  ...o.o.X. .$.$.=.,.,.| [ [ [ =.1.y.>.+.+.+.+.+.o. .[ [ [ ' / :                             ",
"                                  ( ) { o...] } -.w.u.u.0.L + + + *.].].t.@.+.+.#.+.X.< - + + - ; ;                             ",
"                                  / ( { o.X.) _ 5.K.K.u.0.I % @ O Y [.}.V.>.>.>.>.#...1 * # o o - ;                             ",
"                                  ) ] =.<.:.` _ 0.K.e.3.3.7.7.T # Y [..X{.C.V.V.N.>.,.9.7.T # @ , ,                             ",
"                              > / { X.<.i.q.$._ 0.K.0.r Q (.,XH.C ^ [.*X*X.X.X}.].y.1.[.4XQ.C # % ,                             ",
"                              : / O.+.<.i.q.$.$.q.K.0.r Q ,X9X).D ~  X=X:X:X:X*X}.N.N.-X0X).! s 6 ,                             ",
"                          : : : / O.+.>.t.q.0.0.u._.e.3.J.5X0X>XL.U. X=X;X;X;X:X.X{.{.6X0X3XL.G.8 9                             ",
"                          : : : / { o.+.,.<.u.K._.`._._.|.6X0X1XT.R.&X=X;X;X;X:X=X*X=X8X0X1XT.P.W 6                             ",
"                          : : : / { X.X.X.=.q.e.K.`.`.'.XX6X0X1XE.W.4X=X;X;X;X:X:X:X7X8X0X2XE.Y.W 9                             ",
"                                  ) ) ] ' } $.-.w.`.'.XXXX7X6X5X<X<X-X;X;X;X;X;X;X;X;X7X6X5X<X).Q 9                             ",
"                                  : : : : > > _ 0._.'..X:X;X;X=X-X-X=X;X;X;X;X;X;X;X;X;X;X=XXX~.4.9                             ",
"                                    : : : : : _ -.w._..X:X;X;X;X;X;X;X;X;X;X;X;X;X;X;X;X:XXX|.J.&.9                             ",
"                                                t &.r.XX=X:X:X:X:X:X:X:X:X:X:X:X:X:X:X;X=X].6.&.                                ",
"                                                0 e 6.[..X*X*X*X*X*X*X*X*X*X*X*X*X*X*X*XXX!.P e                                 ",
"                                                C H Q r.!.!.!.!.!.!.!.!.!.!.!.!.!.!.!.!.!.9.t                                   ",
"                                            2 4 g k G I P P P P P P P P P P P P P P P P P P                                     ",
"                                            4 y g x h 7 6 6 0 6 6 0 0 0 0 0 0 0 0 0 0 0 7 7                                     ",
"                                          y p g z x h 5 8 C Z Z Z Z Z Z S S Z Z Z Z Z Z Z s 4                                   ",
"                                        3 y g z x x g 4 u h c c c c c v v v c c c c c c l g 4 3                                 ",
"                                        2 p z M x l g u d z M M M M M M V V M M M M M z l g y y                                 ",
"                                        3 p M s.z d d g z p.d.f.f.f.f.f.f.f.f.f.f.d.h.l p d g f y 3                             ",
"                                        3 d p.f.N a a l m d.j.j.j.j.j.j.j.j.j.j.j.j.f.j y g c l u 3                             ",
"                                        3 d h.k.z.! F l z s.f.j.l.l.l.l.l.l.l.l.l.j.f.j y h ! ! s 3                             ",
"                                        3 d h.I.^./.Q.h d z V g.j.l.l.l.l.l.l.l.l.l.k.j u ^ /.Q.F 4                             ",
"                                        3 d a.j.^. XQ.D p l m d.j.j.j.j.j.j.j.j.j.j.f.j u ~ /.~.E 4                             ",
"                                        3 d N B z.Q.~ h g z m s.d.d.d.d.d.d.d.d.d.d.s.f 4 E c.c.F 4                             ",
"                                            p p s D h l z x m M M V V M V V V V M M m p 4 i A D                                 ",
"                                            3 3 3 4 a c v b b b b v c c v n b b b n c u 2 2 4 4                                 ",
"                                              2 X X i G F R R R F D A A D R R R R F G 5 X X 2                                   ",
"                                                . @ * J U U U U U J = = J U U U U U U * @ .                                     ",
"                                                O @ * L K P K K K J $ $ J K K K K K L & O O                                     ",
"                                                O O $ q w w w w w q     q w w w w w q $ O O                                     ",
"                                                O O # & & & & & & &     & & & & & & & # O O                                     ",
"                                                O O # % & & & & & &     & & & & & & $ # O O                                     ",
"                                                                                                                                ",
"                                                                                                                                ",
"                                                                                                                                ",
"                                                                                                                                ",
"                                                                                                                                ",
"                                                                                                                                ",
"                                                                                                                                ",
"                                                                                                                                ",
"                                                                                                                                "
};
