/* XPM */
static char *_a2d058f4cb24ada8a4ece6a7446ab1fM3gl5c8HvSplNF3G[] = {
/* columns rows colors chars-per-pixel */
"64 64 182 2 ",
"   c #06060C",
".  c #08070E",
"X  c #07080E",
"o  c #08090E",
"O  c #070712",
"+  c #0B0710",
"@  c #070912",
"#  c #0A0A13",
"$  c #0D0E1A",
"%  c #100F1E",
"&  c #0E111C",
"*  c #12121D",
"=  c #151522",
"-  c #181725",
";  c #171825",
":  c #1A1A25",
">  c #161729",
",  c #18172A",
"<  c #16192A",
"1  c #1C1C2B",
"2  c #1D1F32",
"3  c #201E2D",
"4  c #211F32",
"5  c #1F212E",
"6  c #1E2133",
"7  c #1E233A",
"8  c #22222D",
"9  c #26292D",
"0  c #282C2F",
"q  c #252532",
"w  c #282736",
"e  c #272935",
"r  c #2A2A35",
"t  c #24253A",
"y  c #2A263C",
"u  c #26293C",
"i  c #2D2E3A",
"p  c #302F3D",
"a  c #2E303E",
"s  c #32323D",
"d  c #373A3F",
"f  c #262741",
"g  c #252B43",
"h  c #2C2D43",
"j  c #272D48",
"k  c #2C2F4B",
"l  c #312E45",
"z  c #2E3040",
"x  c #2B314E",
"c  c #353541",
"v  c #383745",
"b  c #363845",
"n  c #393945",
"m  c #34354B",
"M  c #38374B",
"N  c #36394A",
"B  c #3C3C4B",
"V  c #2F3556",
"C  c #333552",
"Z  c #353954",
"A  c #3D3D51",
"S  c #353B5A",
"D  c #383D58",
"F  c #3A3F60",
"G  c #403E4F",
"H  c #413F53",
"J  c #3E404E",
"K  c #3F4152",
"L  c #3E4152",
"P  c #3E415B",
"I  c #3A5B7B",
"U  c #41414B",
"Y  c #42424D",
"T  c #41414D",
"R  c #404150",
"E  c #414252",
"W  c #424352",
"Q  c #414255",
"!  c #414255",
"~  c #434456",
"^  c #454454",
"/  c #454656",
"(  c #424354",
")  c #464854",
"_  c #464857",
"`  c #464855",
"'  c #494A56",
"]  c #46475A",
"[  c #44455A",
"{  c #4C475C",
"}  c #47485A",
"|  c #464859",
" . c #45495A",
".. c #484A5B",
"X. c #494A5D",
"o. c #494A5E",
"O. c #4B4D5E",
"+. c #4D4D5E",
"@. c #4B4C5B",
"#. c #4E505D",
"$. c #51525D",
"%. c #414464",
"&. c #484761",
"*. c #404D60",
"=. c #4C4D60",
"-. c #4E4F61",
";. c #4D4D63",
":. c #414568",
">. c #454B6C",
",. c #4B4E6A",
"<. c #524E63",
"1. c #4E5062",
"2. c #4D5164",
"3. c #4C516D",
"4. c #535463",
"5. c #575966",
"6. c #595A65",
"7. c #55546A",
"8. c #55596C",
"9. c #595B6E",
"0. c #454F71",
"q. c #494A72",
"w. c #465175",
"e. c #4A5274",
"r. c #46567B",
"t. c #4D5279",
"y. c #4C5C7F",
"u. c #525575",
"i. c #535A76",
"p. c #5A5C74",
"a. c #555D7B",
"s. c #5A5C7E",
"d. c #49617F",
"f. c #596179",
"g. c #696A7C",
"h. c #445F87",
"j. c #4C648C",
"k. c #45698D",
"l. c #576582",
"z. c #5B6485",
"x. c #5F6886",
"c. c #5B6B8C",
"v. c #416C90",
"b. c #4F6B93",
"n. c #576797",
"m. c #536C95",
"M. c #467699",
"N. c #447396",
"B. c #537191",
"V. c #56769E",
"C. c #59729B",
"Z. c #5D7D9E",
"A. c #626C87",
"S. c #636C8B",
"D. c #637797",
"F. c #707996",
"G. c #5D7CA3",
"H. c #5E7CAA",
"J. c #6175A3",
"K. c #607AA8",
"L. c #77809B",
"P. c #4F81A4",
"I. c #5F81A4",
"U. c #4E96BF",
"Y. c #4394B9",
"T. c #5C98B8",
"R. c #6382A5",
"E. c #6281AA",
"W. c #6381B1",
"Q. c #6C8BB1",
"!. c #7493B6",
"~. c #4D96C1",
"^. c #4B98C2",
"/. c #5897C7",
"(. c #539AC3",
"). c #5897C8",
"_. c #539BCB",
"`. c #5BA3CE",
"'. c #5AA7D2",
"]. c #54AAD4",
"[. c #5BA9D5",
"{. c #5CAAD8",
/* pixels */
"c B _ W p = r W O.-.-.4.1.5.+.W W / ^ / B / W J K B B W n n Q / +./ ..-.] ~ X.| / | / ~ | X...X.X.X...X.O.-.-.;.W r u 9.p.9.w q ",
"c W | / i = r W A A A ] -.W 8 r e i r e q / Q N B N N A e e e r r r r _ Q Q M M A Q i r r i r i r b +.Q Q K | X.B e 6 -.X.;.6 q ",
"b B / B i * 8 s v b b n c 8 ' Y U Y ) U q J n s s i i i r n B B B Y n e b B c c c b e $.Y W _ _ ) q n b n n J ] v r 2 ] Q X.6 q ",
"a B B K e *   o # $ $ * $ * * $ * $ * $ # * # $ # * $ # = $ = $ $ * * & * $ # & # $ = * = $ & $ = & $ = $ * = 1 * e q | W | 1 : ",
"a B Q K e = X * 3 q q q 8 r q e q q r q e q 5 e e 8 q q q e q e q q e e e 8 e q q p e s r e r e r e e e i e i s = i w | K Q > = ",
"b ~ X.[ a , + : s i v i i c i a v s a b r a a i s r s i c r i v i n s n v i b a a s v s c v r c a c a s v p v s 8 s i | [ L < : ",
"m } 7.2.c 2 + 1 i v s b c c s a c i v c b b i n v B v v b v v s v c n v v v a c c v c s b a b c c b c B v b v e ; e t 2.3.;.6 : ",
"h  .e.P.P 6 + 1 v s n c s n a b b v n B b c c c b b c v v v c v s v n c n a b c a B c c b b b n c s v c b c v r = r h i.N.y.u = ",
"c ,.j.'.>.y # 8 v v v s c s b c c b c n b c a v b a n s n c v B v B b v c b a b b c b c v c c n s b c v v c B r 1 r m z.~.V.k 1 ",
"c u.n.[.w.g o 1 i v s c c b s a b a b b b n c b c b s b c b b c n v n c b c a b s b c a B c n b v v c v v b a a 1 e m z.).W.F h ",
"M a.m.{.e.j + : v v v v s v v s s v v b c v b c v s s s b b s B i c n c n c b v c b b c c n s v s c c c v p b r 1 r C S._.Q.:.A ",
"Q i.C.{.e.k + 1 s B s s v s v s s p c v c n v n B s B s B c v v n v c b a b c c b c a i v s s n a J v v v s b r 1 i [ F._.Q.>.l ",
"Q f.C.'.0.g + : e v i v s v n s n c n b v v n v v v s n v v n v v s v a s c a b c b c c n n v c b c b b b n s i 1 i [ L.`.!.%.m ",
"b 8.m.`.>.7 + : r a s s n v v v c v c v s c v s n v Y B v J v n v s c b a i c s b c c b s v i v c c b c Y n n i ; e m A.(.R.Z i ",
"i O.s.Z.P , + 8 e s s s s i v s n v v n s v s v v v v v v v n s n n v n p i i c c i b s n n s B c B c c c v c i 1 e h p.D.l.t : ",
"i K +.;.n = o = e v i n s n v v s v v s v s s s s v v v s v s s v i n n v v i c c c c n s v v s b c b c c c i i : e i 4.X.[ 2 = ",
"u G _ K r & . 1 e i v s v s v s s v c n s s v s n v v v v n v s s v s v v v v i c s s v s v s n c b b s B s c i = e q / K A < : ",
"e B J Y e * X = 9 s i s n i B s n c v s s s v s s B a v n v v i i i r s e n i n B s n s v s s v n s n n c n c i 1 q 1 ~ K ..: * ",
"r b Y b q * o : r v s v v s s n v v v s n s s s v v v n s n s i n s s s s s v v v v s n s v n v s s n s v c i v : q , ~ A Q : : ",
"r b n n e * o 1 e i v i v i s s s n s n s s n s v v v v v v s s i s i s s i v s n s n v s n s B s s n v v c v e 1 e 2 ~ A B 1 8 ",
"a B B B r * X 1 9 n s s s s n s v s v i n s s v s s s v v s s i v s s n i n s n v s s v v s n v n s s n s c s i : 9 , Q A A - 3 ",
"i b B n e * o : r i s s i s s v s s s s v s v s v v s B v v v i v v v s s s v v s v s v v n v v v s n s c v c c : q , W B B : 3 ",
"q v B B e *   = q r i i v i s v s n s n v s v v v v v s n s v v s v i v s s n s n s v v v n v v s v v b c i b r : e 1 W K W 1 = ",
"q b B B e $ o 1 r s i i s v s v v s n s v v v v s v s v v s n s v s s n s v v v s n s v n n B v v s s s c c i i 1 q , Q W ^ : = ",
"q b B M e = X = r e s s s s i v s n s v n v n v s v v v v v s v s v v s n s v v v v s n v Y B v n s n v v v s r * q 1 Q M B = * ",
"8 c b M r = O 1 q i s i n s v v s n v v s n s n v v n s s s v s s n i n s s n v n v n v n v v v v B n B v s s r : 8 : A n M = * ",
"q s n M r % + : e i i v s v s s v v n s v s v v s Y s v n v n s s i v s v s s v s s s v s v n s n v B Y v n s r 8 9 2 ~ B B = = ",
"e B W H i =   = e i i r s s i n s B n v n s n v n v n v v v s v s s v s v s v s v v s n s v v v n n Y n v s v e : 9 q  .X.K : * ",
"8 H ;.0.m ,   8 i s s s s s v v v v n v s v s v B n v v n s v v s n s v v s v v v s v s v s s v s n s s i s s q 8 8 t 2.r.%.6 * ",
"w [ I (.%.2 o : i i s v s v s v s s n i B v s n s U v s s s s s U n n s v v s s i s s v v i v s n v s v s v s i 1 9 f i.Y.m.g ; ",
"h ,.j.].q.g o : a i v i s v s n s v s s s v s s B s s s s s s s s v s s n s n s s v s v s s s v v n v s s s s w = q j s.^.J.x 6 ",
"m e.m.{.e.g . 1 i i i v s s v s v s s s s s a v s v v s n s v v s v s s s v i v s s v s s s s s s v i v i s s e 8 q h z.~.G.V , ",
"L s.m.[.t.j . = q i i i s n s n v s n s v v s n v v s v s n s s s s s s v i s s i v s n n v B s v s s s v s s i 1 q k z.(.H.V q ",
"A i.m.{.t.j . : s i v s v v v v v s s v s s n v v s s s s v i n s v v s v s v s s s v v n v r v s v v s s s n e : q m z.~.H.V q ",
"c ,.j.].q.j + : e v s n s s n s v i s s s n v B s s v s v v s s v s s s s v s s s s v s v i s s s n s v s n n r 1 8 j s.U.V.k 2 ",
"m ,.d.T.P 6 . = e i v B s n s v v s v s s s s s s s s v s s s s i i s i v s s v s v s v n s v s v s n s v n i r = 8 t 7.M.c.f , ",
"m &.7.i.m ,   : i v v v n v n s s v s v s s s v s r n s s s s v s s s s s v s s v s s i i s s s s v s v v s b e : q q { 3.-.2 : ",
"h L | -.a = X 1 e v s s s v v i n s v v s n s v s s s s s s s i s s s s i s s s s s s i v s v v s n s v s s s p : 9 4 ..L K < : ",
"i B ~ ~ r * O = s c s B s n s v s v s v s s v i i s i s i s e s s i v s v s s v s v s v s v s s v s v s s s s e : q 1 ~ B K > = ",
"u M ] / r & O : r v v s n s v s s s s v s v v s v s v s s s s s s s i v i s s s v s s i s s i n s B v v n s v e = e 1 Q K A , = ",
"r K | / i =   1 e c s n s v n v n i v v s v v s s s s s s i i r i r s s i s s n v v v i n s s v s v v v s v s i : q 1 Q M B < : ",
"h A | Q r = O : i s s v v v s n s v i s v s s i s s s s r s r s s s v s s s s s v s s v s v s v v i v s B s v i = q , ~ B W : ; ",
"u M ~ W r = O 1 e s s s v s v s s v i n s s s s v s s s s i s s s s s s i i s s v s v s s v s n s v s i s n n e 1 q 1 Q Q K : : ",
"h M K A r = O : q n s n v v n s v s s s v r s s s v s s r s i e s s s v i n s n v n v s s v s i v i s s s s s r : q , ] A A : : ",
"i M Q Q r = O : r s s s v v s v s s s v s s v r s s s n s v s s s s s s s s v s s v s s s v v s s i s i n s v i : q 1 / K Q 1 : ",
"c B Q X.c * O : e s s s v i n s v v s n v v s s s s s s s r s s s s s s s s s s v i v s v n s s s i i v i s s r 1 r 6 | K ..: 1 ",
"m -.5.1.c * # 1 e n s v s v s v v s n s v s s s i s e s s s s r v s v v s s s v s v s v s s n i s i i i e i r i : 8 1 K J ' 1 1 ",
"m W 4.2.b = + 1 i i v s s v s v s n s s v s v s s s s s s r i s i s s s v i s s s i s s i v i s s i n i s i r q : 9 1 ~ H W : 1 ",
"z A 4.2.B 2 # 1 e b s s n s n v v v s s s v i v i s s i s e s s s s s v i s s s v s v s s s n i s v s s e i e 8 = 9 3 ~ Q  ., : ",
"l | <.&.c < + : i s v v s n v v v s v s v s s s s v i v s v v s v s s s s i s s s v s s s i i i v i v s r n i i = q 5 <.;.7.6 : ",
"n 4.e.v.D 2 + : i s v s v s v n s n v v v i v s s s s i s s i v s s s s s s s s v s s v i v i v v s s s v s s q : r t e.k.c.g 4 ",
"N 3.h.'.>.g # q i v v c n v b c c s v s s v s s i s s s v r n v s s i v s s s s s v s i s i s s s s i s i v v i 1 q h a.~.G.Z t ",
"A u.b.{.e.j # 1 s s v v v v i c s i v s B s v v s v i s s s i n s s v s n s s i i s e s e s s i n s s s s v s q = q m x._.R.C 2 ",
"A i.m.{.t.x # 8 i s n s n b v B s B v s s s s v n i v i s s s s i s s v v s n s s s s v i v i s i v i s s i i q : q C S._.E.S q ",
"A a.m.{.t.x # 8 r s s n v n b c v s v s s s i v s B s i v s n i s s s s s s i v i s s i s i i i i s i v i s i e 8 e C x._.E.S w ",
"N u.n.{.t.k # = r c c s s B v B s s n s B a s s n v v s s v s s s i s s s r s s s v i n v v v i s v s i v s v e = e m z.).H.C w ",
"m 3.j.'.e.h @ 1 s s n v n Y Y n v v s n s s i s s i c i s r i s i n s v v s n s s s s s n v s s i v i s s v v e 1 e m l.U.G.k q ",
"N *.u.I.L t # 5 r n n B n v n v v v n v n v s n i v i i s s s s v i s i s v i v i s s i n s n i v s i n v n v s 8 i m 7.B.z.g 4 ",
"i Q ;.;.m : + : p i b b s n v n v n B Y n i v i v i c s i c i s i i i r c r v s i v i s s s a s s s v s v s v i 8 v u -.-.-.q : ",
"z A ] &.m , + : i i h r i r s i s v n n r r e e r e p e s q 8 i q s r r r i r r r w i r i r e i e s e s e i v e q s r 7.1.| 1 : ",
"A ] -.Q h : + + * : = = = 1 = : 8 1 q : : 1 * : * * = = * * * * : * * * * * $ = = 1 = = 1 * 3 = : : 1 1 : : : : : s r 7.| W 1 5 ",
"8.g.7.~ z = i #.+.$.4.4.4.n ' 4.4.4.@.' r $.@.@.#.@.' ' s ' ' ' _ ' ) n @.@.#.4.6.$.v @.@.@.#.@.@.s 6.$.4.4.7.5.' s q / / ~ : q ",
"] 9.-.~ a * r B / / ~ ] / J 9 r r 0 0 9 d _ M N b n b N r q q 9 9 9 q ..n B B _ O.Y c e q r r r e #.Y K J W W W B r 1 ..| ] , q ",
"N -.-.| a = i M ] X.O.X.Q X.5.-.-.X.O.O.O.J n B n n c M n W +.......@.W B B n W 4.B J ..+.@.4.#.@._ K W W W W / v r q 1.X.X.2 1 "
};
