/* XPM */
static char *_0953_6d384273827f72797857e6981e7544f11d803efb7a49c3044e12cbce6d47e307[] = {
/* columns rows colors chars-per-pixel */
"64 64 77 1 ",
"  c #393734",
". c #373933",
"X c #3B3A36",
"o c #3E3D39",
"O c #413E3A",
"+ c #44423E",
"@ c #48443F",
"# c #464440",
"$ c #4A4642",
"% c #4C4A45",
"& c #4F4C48",
"* c #524C46",
"= c #524E49",
"- c #55514C",
"; c #59544E",
": c #5A5551",
"> c #5E5953",
", c #625C56",
"< c #645E59",
"1 c #66615B",
"2 c #6B645E",
"3 c #6C685E",
"4 c #6D6661",
"5 c #6E6962",
"6 c #706761",
"7 c #736B65",
"8 c #756E69",
"9 c #786F69",
"0 c #76706A",
"q c #7D746D",
"w c #7E7670",
"e c #7F7872",
"r c #80766E",
"t c #82786F",
"y c #817770",
"u c #847B73",
"i c #897E76",
"p c #867E78",
"a c #887F79",
"s c #8B8077",
"d c #87817A",
"f c #8C837C",
"g c #91867E",
"h c #93887F",
"j c #8E8680",
"k c #918780",
"l c #958B83",
"z c #998E86",
"x c #9A8E88",
"c c #9B9087",
"v c #9D928A",
"b c #A2958D",
"n c #A4988F",
"m c #A39790",
"M c #A69A92",
"N c #AA9D93",
"B c #AD9F98",
"V c #AEA096",
"C c #AEA198",
"Z c #B0A297",
"A c #B2A59B",
"S c #B6A89E",
"D c #B8AA9F",
"F c #B6A7A0",
"G c #B7A9A1",
"H c #BBADA3",
"J c #BDAFA8",
"K c #BEB0A5",
"L c #BFB1A8",
"P c #C0B2A7",
"I c #C3B4AB",
"U c #C6B8AE",
"Y c #C8B9AF",
"T c #C7B9B0",
"R c #CABCB2",
"E c #CEC0B6",
"W c #D0C1B7",
/* pixels */
"HKKKKKDYnc3lSIKKDBNbrqq1zNPAMVHKKKKKKKKKUv37hnYIACScqw18NHGNNNAH",
"KKHHKKDIMcq7vUKKVNNgqqq,NNINVFGSKKKKKKKKLIl1lcshVAgqqq&vNUACNAHH",
"KKKKKKHIvcf*lVVvlbclyq,pBBTNAKLKLKKKKKKKKIn7:heqqwqwq>4NVUNNAHPK",
"KKKKKKKIttqX;dew8dfll0+lNAIBHKKKKGKKKKKKSAv8X;1:,>;;&.dNSHBAKKKK",
"KDKKKKKDww-->#$#O;71%+XvNIAGKKKKKKKKKKKSVVc3-kssuuiu5oubAGAKPPKK",
"KPKKKKAiq:4MvkefvNvxl>.mVIALKKKKKKKKKKDVNgq*lVKIIIPAx81cnIHKHHHK",
"KHDKDnuq4+xAMcmNSULSvl;uvTHKKKKKKKKKKDVNhq>7VRKAHYYRHl=fcRPKKHPK",
"KKKAnuq9o4HLLCKUSVSUWvh;lSIHHKKKKKKKKVNhq3&MUKVNDPDHTH0:xCIKKKKK",
"HSBNsqq:oVLVVCAVNADDIDc3evLLKKKKKKAPANcrq+qHIVMSDKKKPRZ@uxHIHHHK",
"VNNbyqw#5LCMVCNMVKKPKYbh;lSLKKKKKKHANVgr,;VRVMVKKKKKHPY9%lcTIHKH",
"NNNlqq7+MGMNVVMVHKKKKIHc77vTKKHHZHANMNsq%kIGMVGKKKKKAKRb$8xMYPAN",
"NNNiqr-0JVVMMMVHKKKKKKYNl=fvLLLLicNNNnu34AINVGKFKKKKPKIYy#fxcKNN",
"chsrq0$vLNVNNNGLKKKKDKKIv7-lvAGvqhnnviw,vKANCLKKKKKKPHHYb,-zcNAM",
"rqrrw,3NLMNNMAJLKKKKHIDIzf#-dlj53hcsrq6qNLNCKKKKKKKKHPPIHl-<zzut",
"qq092o4MTVCCCHKKKKKKKKKDsw=X##$$@-7,;%XvNLNAKKKKHHKKPHPPRxgo<krq",
"OOO@%.-nHCVCHKKKDKKKKKAnq0#dMNVNv7@+-1%nNIAHLKKKKKKKPHPZRku# #OO",
"ugbNvk>pxGALLJKKKKKKKANhq25KULKKHvbNNmfwzJPPHPHPKKKHPDZNKgrO9Mzg",
"zNBITml;lvLLHLKKKKKKANNuq;dLVCVnCKJIINx7kNIHPHPHKKKKDVNNIi7<NNAb",
"AIUGHYbr5xNRKKKKKKKANAvw0@vLVnVVBFHKPHxl5cHPHPHPDKHDNNZZgr>nAIDP",
"GAAHHYBz>pxLLHFKKKCMNbur--VLVVMVHHHHIIvz0ubYPHPHKKZNNZbir,iZPCCC",
"NFKKHPIxf-kMRLLLKANNNgr6.eZLVVSKIKKKPYNzx,lJIJHHHZNNNntr76NIBNCB",
"HKKKHPTNx84xFTHJANNNbrq$;VLVAHKKHKKKHIHvxu7vBHIHNNZnhtrr<NFCNNNN",
"HKHPHPHIxk-svSRGNAKSuq1ojGDGKKKHHKKKHPUIbz4jxxmFZhsttrr<zNPNNNCH",
"KKPHPHHImxw&fcvGIVhyq7+2VELKKKKKKKKKGKKHIzk>lxxxtrtrrr69NFDBNBHP",
"KKKKKKPDAcl +5xxuqqq7$.kALKLKKKKKKKKKKKKIBx6*9kxyqq61=OuNFANAHPP",
"KKKKKKKKNfg o#=0q3,$@$+VGLKLKKKKHHKKKKPDNGlyX O>1,--*+XuNAGAPPPH",
"KKKKPKPAur22fxf0710gvv;fVUKDKKKKHHKKKKDVNNw4X-jNBNNNNk<8NNPHPDHP",
"KHHKPDAsq96NABvczMGHHbg;hKLLKKKKKKKKKDNNNk9->mBHYIIYTAz<kzAUPPPH",
"KKDPPZbrr1lCLHFAAIYIIDv3qvLLLLKKKKPHDNMNmqqOyBIFBNNAPYBf6zvYPPHP",
"KKPDZnir83NLNNNCIIKDKYnh>cVLKKKKKKHDVNNNkw6$vIANNNAHHPTb7gzAIPPH",
"KKANNhrr=vCKNNNHHKKPKIIcu3cGLKKKHKANNNNbyq:8NRNNNCPPHPITx6zbYPDP",
"DZNZnrr12NFANNSKKKHHKKYNc3dcKLKKKZNNVNbtw2,NJINAAHHPPPGPDutzNYYH",
"ADVfqqq#xNHNNCKKKKDKKKPAcj;kxMAHHDAVbhrq7,VTSNNNHKKKKKKKUv7lcvFR",
"htqqqq-1NFLNVKKKKKPKKKPPcc0=kkqqqrqqqww6&mKCCNNSKKKKAKKKISf4clzb",
"grq7>+.jVTNNSKKKKKKKKDDDccl$-457770q81%XqVHMNNCKKKKKIKKLKGc44ulz",
"3;$$&XoMFHVVHKKKKKKKKHNNMld:Xo X++@$+X.XlFFNNCKKKKKKKKKKVAxqX@%:",
"0ulvvu&nHCVHKSKKKKHPKVNZVs0@wfy78qwuur1XpACNNGKKKKKHKKKANNlq7xsq",
"VZHKKcd0NHCKKKKKKKKHAVZMdq-0NNbbNMNNNMv1,MLNGKKGKKKKKKAVNgw1BHSm",
"KHKKRVcefHLLKKKKKKKANNNfw,-MBGYIITIIINxl%xGAKKKKKKKGKSNVMw75GFCH",
"NAKGLUvx0xHLSKKKKKZNNzyq5+fVIHNNJHPHHHzxq8AIPKKKKKKKHVMVfq-kKCVV",
"VKKKKIHzl7cKLKKKKAnNntrq#7NFHNNHHFKKKINcz1lYLKSKKKKKVVVvr7@VSSVV",
"KKKKKKUMl7dvKILKDNNNhtr-=NNIVNAKKLKKKPYNzy8NIHIHKKKZNMnur*3MGSnV",
"KKKKKKKIvj1lcGUGNNNNfr0+kNCKBDHHHKKKKAKYmx2lAIKHSHZNNnsq7*cVLVVA",
"KKKKHKKLNl04xcCKZZNZtr:qNCINVHKKSKKKKPPPIf54xHILPZnNbsqq*hNSLVGK",
"KKKKHKHFNcl&wxxMVCMkr8,nVICVHKKKKKKKKKHHHw4+fxACVnnhsqq30VALCAGK",
"KKKKKKFAVzc8#dxuqqrw9@sVIANAHHKKKKKKKKPDCq4X<lyrrrrtqwq:vULVAKLL",
"KKKKKAVNiye4.o;>242;o.fNUNCKHKKKKKKKKKAnbq4 o4aq77997>#1VTVVKKKK",
"DKKPDVbsqq6=4wjxvvvkq@yMINFKCKKKKKDKKSNNxq1X7MNMcgcvvvw-mKSHGKKK",
"KKKDAztqr6*nMVAGHIAbcj4xNIKJKKKKKKKKANNNzq%%MNBADKIIIAvs1vUKKKKK",
"KKHZlqrr7@0MKIHCVAITIvk7zNUPKKKKKKKDVNNny1X8NHTPKDAAKRZz5uMRKKKK",
"HHZNiqr3O-mFKNNNNHKKICxqwzbIIKKKKHHVNNvtq+omHTNNMNVADKRvl;fVULAK",
"HANbrq9O%zCINNNMVKKKKHxz,fzbLKKLKDVNNbrw>.<AIBnNZMAKKKIKce2MHIKK",
"AZNbrq--lVIVNNNNAKKKKIbcs:xxCIHKDZNNVlq9+%zLCNNNNZHPPHKYnl1NCILK",
"ZZDbq7+vVISVNNNMHKKKDPIcl4>xcKILDVNNnuq-#xHHNNMNAPHDHPKPLcddNIIH",
"HNhtr,1NAKNMMNNVHKKKKKIVlj%0xvmccchclu5+fVLVNNNAPPHPPKKKYcxwNMFI",
"trrqq-gNASNVNNNSKKKKKKKPcc4o>7ejhlccld%qvCHVNNCHPHPHKKHKUbcugxxz",
"y84<;owcVGNNNNNSPHPKKKHDmx0.o&>&++&>1:odzBSNAZHPKKHKKKHHIAcs@5dl",
"731,:$>zcLNNNNALKPHKKKDZCx0OjNNvdgmNNMq0zMLNBHKKKKDKKKKHHngr&133",
"NVMbcl2qcCCNNNHKPHKKKHZZmd14NNKScMNNVvl0kxFFGPHKKKDKKKHZnrq2xNNN",
"EURSncz:qvANNCLKHKKPHVNhq8>NATSYGIUTTSvl7lxIPPPKKKKKKHZhwq3bNALY",
"NnAURSvf&dCNNCLKKHDDANcwq2uNLANALTTLUEGlg,zmYPKKKKKKDZbrq5fNARHA",
"NAHHIRCzw&vHVHLKKKPDNvrqq5MVIVVNGKKKKKEvz@8xPPKDKKKDAMir50NCRSNN",
"ZHPKKPRvx15FSKKKPPDNntwq4cNGKNMCLKKKKKUSz:$zNYKKKKDZNiq8,NNRANNN",
"KKKKKKUFzj1NIKKSPDAAgqqq5NNUVNVKKKKKKGKUz9XkzYKKKDNZcqr:lNUFNNVN"
};
